<svg xmlns="http://www.w3.org/2000/svg" xmlns:xlink="http://www.w3.org/1999/xlink" xmlns:inkscape="http://www.inkscape.org/namespaces/inkscape" version="1.1" width="766.3333" height="288.3333" viewBox="0 0 766.3333 288.3333">
<defs>
<clipPath id="clip_1">
<path transform="matrix(1,0,0,-1,-42,569.394)" d="M42 281.06068H808.3333V569.394H42Z" clip-rule="evenodd"/>
</clipPath>
<clipPath id="clip_2">
<path transform="matrix(1,0,0,-1,-42,569.394)" d="M0 850.394H850.394V0H0Z"/>
</clipPath>
</defs>
<g>
<g clip-path="url(#clip_1)">
<g inkscape:groupmode="layer" inkscape:label="Grupo Biggs">
</g>
<g inkscape:groupmode="layer" inkscape:label="Biggs Fome">
</g>
<g inkscape:groupmode="layer" inkscape:label="Arigato, seja feliz">
</g>
<g inkscape:groupmode="layer" inkscape:label="I love Biggs">
</g>
<g inkscape:groupmode="layer" inkscape:label="Biggs isolado">
</g>
<g inkscape:groupmode="layer" inkscape:label="Biggs A&#xE7;a&#xED;">
</g>
<g inkscape:groupmode="layer" inkscape:label="Biggs Poke">
</g>
<g inkscape:groupmode="layer" inkscape:label="Biggs Japa">
</g>
<g inkscape:groupmode="layer" inkscape:label="Biggs China">
</g>
<g inkscape:groupmode="layer" inkscape:label="Biggs Refei&#xE7;&#xF5;es">
</g>
<g inkscape:groupmode="layer" inkscape:label="Biggs Carnes">
</g>
<g inkscape:groupmode="layer" inkscape:label="Biggs Pizzas">
</g>
<g inkscape:groupmode="layer" inkscape:label="Biggs Burger">
<g clip-path="url(#clip_2)">
<path transform="matrix(1,0,0,-1,228.3388,259.02119)" d="M0 0V-6.919H5.543C7.98-6.919 9.199-5.805 9.199-3.577 9.199-1.193 7.849 0 5.15 0ZM0 11.086V4.678H3.931C6.343 4.678 7.549 5.765 7.549 7.941 7.549 10.037 6.381 11.086 4.05 11.086ZM-5.032-11.282V15.449H4.678C7.22 15.449 9.18 14.86 10.556 13.68 11.932 12.501 12.619 10.732 12.619 8.373 12.619 5.569 11.479 3.656 9.199 2.634 12.684 1.848 14.428-.328 14.428-3.892 14.428-6.225 13.72-8.039 12.305-9.337 10.89-10.633 8.858-11.282 6.211-11.282Z" fill="#6e1b1b"/>
<path transform="matrix(1,0,0,-1,251.37589,243.57199)" d="M0 0V-15.645C0-20.206 1.781-22.486 5.346-22.486 8.963-22.486 10.771-20.193 10.771-15.606V0H15.802V-15.96C15.802-19.289 14.924-21.988 13.169-24.058 11.413-26.129 8.805-27.164 5.346-27.164 1.886-27.164-.708-26.169-2.438-24.176-4.168-22.185-5.032-19.446-5.032-15.96V0Z" fill="#6e1b1b"/>
<path transform="matrix(1,0,0,-1,277.5171,247.9744)" d="M0 0V-8.649H4.796C6.054-8.649 7.076-8.263 7.862-7.489 8.649-6.716 9.042-5.675 9.042-4.364 9.042-2.949 8.654-1.867 7.882-1.121 7.109-.373 6.08 0 4.796 0ZM-5.032-22.329V4.402H6.133C8.517 4.402 10.457 3.603 11.95 2.005 13.445 .406 14.192-1.704 14.192-4.325 14.192-6.447 13.582-8.243 12.364-9.71 11.145-11.178 9.592-12.096 7.705-12.462 7.862-12.646 8.281-13.157 8.963-13.995 9.644-14.834 10.128-15.404 10.417-15.705 10.706-16.007 11.125-16.419 11.676-16.944 12.226-17.468 12.73-17.835 13.189-18.044 13.647-18.254 14.113-18.358 14.584-18.358 15.371-18.358 16.17-18.136 16.982-17.69L17.533-21.7C16.354-22.382 14.964-22.722 13.366-22.722 12.37-22.722 11.381-22.44 10.398-21.877 9.415-21.314 8.517-20.594 7.705-19.715 6.892-18.837 6.139-17.953 5.445-17.062 4.75-16.171 4.055-15.292 3.361-14.428 2.666-13.563 2.07-12.96 1.572-12.619H0V-22.329Z" fill="#6e1b1b"/>
<path transform="matrix(1,0,0,-1,316.5544,246.40207)" d="M0 0-2.084-4.01C-4.024-2.306-6.081-1.455-8.256-1.455-10.588-1.455-12.423-2.255-13.76-3.853-15.096-5.452-15.764-7.692-15.764-10.575-15.764-13.51-15.103-15.751-13.779-17.297-12.456-18.844-10.693-19.617-8.492-19.617-6.605-19.617-5.059-19.158-3.853-18.241V-12.737H-9.828V-8.374H.864V-21.111C-.236-22.002-1.698-22.756-3.519-23.371-5.341-23.987-7.116-24.295-8.846-24.295-12.305-24.295-15.188-23.056-17.494-20.58-19.8-18.103-20.954-14.769-20.954-10.575-20.954-6.355-19.8-3.001-17.494-.511-15.188 1.978-12.305 3.223-8.846 3.223-5.282 3.223-2.333 2.149 0 0" fill="#6e1b1b"/>
<path transform="matrix(1,0,0,-1,340.0625,270.30348)" d="M0 0H-18.124V26.731H0V22.29H-13.327V15.921H-2.438V11.558H-13.327V4.402H0Z" fill="#6e1b1b"/>
<path transform="matrix(1,0,0,-1,349.2607,247.9744)" d="M0 0V-8.649H4.796C6.054-8.649 7.076-8.263 7.862-7.489 8.649-6.716 9.042-5.675 9.042-4.364 9.042-2.949 8.654-1.867 7.882-1.121 7.109-.373 6.08 0 4.796 0ZM-5.032-22.329V4.402H6.133C8.517 4.402 10.457 3.603 11.95 2.005 13.445 .406 14.192-1.704 14.192-4.325 14.192-6.447 13.582-8.243 12.364-9.71 11.145-11.178 9.592-12.096 7.705-12.462 7.862-12.646 8.281-13.157 8.963-13.995 9.644-14.834 10.128-15.404 10.417-15.705 10.706-16.007 11.125-16.419 11.676-16.944 12.226-17.468 12.73-17.835 13.189-18.044 13.647-18.254 14.113-18.358 14.584-18.358 15.371-18.358 16.17-18.136 16.982-17.69L17.533-21.7C16.353-22.382 14.964-22.722 13.366-22.722 12.37-22.722 11.381-22.44 10.398-21.877 9.415-21.314 8.517-20.594 7.705-19.715 6.892-18.837 6.139-17.953 5.444-17.062 4.75-16.171 4.055-15.292 3.361-14.428 2.666-13.563 2.07-12.96 1.572-12.619H0V-22.329Z" fill="#6e1b1b"/>
<path transform="matrix(1,0,0,-1,367.9338,268.5741)" d="M0 0 1.14 4.678C3.236 3.21 5.464 2.477 7.823 2.477 9.106 2.477 10.148 2.765 10.948 3.342 11.747 3.918 12.147 4.782 12.147 5.936 12.147 6.748 11.891 7.397 11.38 7.882 10.869 8.367 10.025 8.792 8.845 9.16L4.874 10.418C1.389 11.57-.354 13.89-.354 17.376-.354 19.656 .472 21.556 2.123 23.076 3.774 24.595 6.053 25.356 8.963 25.356 12.029 25.356 14.703 24.714 16.982 23.43L15.568 18.988C13.681 20.193 11.531 20.796 9.12 20.796 7.652 20.796 6.532 20.514 5.759 19.951 4.985 19.387 4.599 18.634 4.599 17.69 4.599 16.249 5.464 15.266 7.194 14.742L11.243 13.366C13.313 12.658 14.846 11.735 15.842 10.595 16.839 9.454 17.336 8.006 17.336 6.25 17.336 3.814 16.491 1.809 14.8 .236 13.11-1.336 10.863-2.123 8.059-2.123 6.538-2.123 5.038-1.906 3.557-1.474 2.077-1.041 .891-.55 0 0" fill="#6e1b1b"/>
<path transform="matrix(1,0,0,-1,759.769,91.389499)" d="M0 0C-1.856-10.332-9.805-19.405-24.053-21.651-29.531-22.515-34.574-22.346-39.929-20.971-36.272-25.583-32.207-29.98-28.659-33.903-10.644-53.814 9.081-76.271-3.694-104.788-15.481-131.101-59.044-143.707-85.265-136.115-89.914-134.77-94.422-132.79-98.431-130.103-107.516-152.701-123.974-170.839-152.094-177.872-169.997-183.225-189.623-182.578-206.299-173.66-214.496-169.276-221.78-162.835-226.554-154.958-236.294-168.724-250.363-179.279-270.284-184.262-288.187-189.615-307.812-188.968-324.488-180.05-338.531-172.54-349.897-158.99-350.545-142.528-350.867-134.353-348.506-127.05-344.365-120.797-345.629-120.917-346.881-120.993-348.105-121.033-354.912-121.253-363.829-120.435-369.897-117.17-372.606-115.711-374.963-113.737-376.883-111.334-379.083-108.582-380.467-105.778-381.372-102.9-398.574-119.128-421.759-124.037-445.621-122.866-459.309-122.194-481.001-120.729-490.73-110.259-497.281-103.236-500.098-86.65-501.749-77.983-504.924-61.315-507.233-44.28-509.215-27.431-510.288-18.318-511.266-9.164-512.088 0Z" fill="#ffffff" fill-rule="evenodd"/>
<path transform="matrix(1,0,0,-1,390.5852,224.20758)" d="M0 0C-4.371 .73-8.609 1.925-12.298 3.728-15.355 5.222-18.124 7.128-20.529 9.379-37.578-.331-57.892-3.391-78.377-2.477-95.2-1.728-117.214 .049-129.341 11.885-137.717 20.062-140.574 34.342-142.823 45.069-145.882 59.654-148.082 74.382-149.992 89.123-151.767 102.819-153.261 116.55-154.196 130.315-154.836 139.72-155.873 151.381-153.793 160.561-152.153 167.796-147.21 173.638-140.322 177.446-127.13 184.739-105.236 187.225-89.862 188.093-85.727 188.326-81.619 188.506-77.559 188.534V91.105H262.214V173.7C270.755 169.684 278.053 163.494 282.591 155.792 298.162 158.29 315.48 157.881 329.349 152.288 363.232 138.622 363.103 97.311 330.266 86.346 330.993 85.59 331.716 84.83 332.434 84.066 350.11 65.223 362.048 44.26 349.903 19.634 336.194-8.164 288.994-21.46 258.296-13.386 257.234-13.107 256.18-12.802 255.135-12.472 243.712-30.948 226.016-43.659 202.057-49.167 182.117-54.521 160.392-53.63 141.865-44.631 137.056-42.295 132.527-39.407 128.488-36.042 118.049-45.131 105.292-51.281 90.704-54.635 70.765-59.99 49.04-59.099 30.513-50.099 13.349-41.761 .211-26.645-.576-8.504-.701-5.626-.503-2.782 0 0" fill="#d1d2d4" fill-rule="evenodd"/>
<path transform="matrix(1,0,0,-1,688.2542,57.840669)" d="M0 0C18.016 5.277 38.553 5.596 52.692-.682 79.746-12.694 78.686-50.33 47.47-55.252 42.036-56.109 37.03-55.951 31.724-54.609 35.355-59.176 39.379-63.529 42.896-67.416 60.926-87.345 80.655-109.817 67.869-138.359 56.071-164.695 12.482-177.314-13.764-169.715-18.398-168.373-22.892-166.403-26.892-163.731-35.987-186.316-52.452-204.44-80.566-211.472-98.482-216.828-118.12-216.18-134.809-207.255-142.99-202.88-150.263-196.456-155.042-188.603-164.788-202.346-178.852-212.883-198.755-217.861-216.671-223.218-236.31-222.57-252.998-213.645-267.057-206.126-278.434-192.559-279.083-176.078-279.404-167.932-277.064-160.649-272.955-154.408-274.183-154.523-275.399-154.596-276.588-154.634-283.405-154.855-292.33-154.035-298.407-150.764-301.123-149.303-303.485-147.324-305.41-144.916-307.593-142.182-308.975-139.4-309.882-136.545-327.089-152.737-350.26-157.638-374.109-156.467-387.814-155.794-409.512-154.328-419.253-143.844-425.815-136.808-428.632-120.224-430.285-111.542-433.461-94.872-435.77-77.837-437.753-60.986-439.605-45.251-441.174-29.39-442.15-13.576-442.702-4.635-443.756 9.619-441.966 18.317-440.96 23.204-437.868 26.954-433.688 29.498-422.024 36.598-399.888 39.199-386.129 40.055-368.885 41.126-350.786 41.693-336.561 30.043-325.61 21.076-319.259 9.064-322.127-5.27-322.813-8.695-323.985-11.993-325.482-15.145-326.409-17.096-327.45-18.971-328.569-20.796-321.346-22.545-314.897-26.208-309.164-31.188-308.937-30.912-308.704-30.638-308.462-30.366-307.477-29.26-306.381-28.185-305.197-27.153-305.669-26.779-306.129-26.387-306.576-25.977-312.42-20.613-315.748-13.124-315.693-5.182-315.562 13.449-299.101 24.277-281.705 23.6-261.121 22.8-247.808 5.594-255.328-14.296-256.748-18.052-259.025-21.31-261.88-24.016-260.013-26.219-258.628-28.662-257.56-31.254-248.916-21.693-238.298-13.91-226.34-8.541-198.311 4.046-163.235 3.971-147.658-26.889-146.845-28.5-146.084-30.288-145.371-32.221-135.862-19.271-123.045-8.839-108.151-2.15-98.819 2.04-88.706 4.827-78.792 5.542-77.492 8.264-75.462 10.77-73.246 12.987-71.808 14.426-70.282 15.843-68.736 17.169-57.399 26.893-42.814 31.759-28.056 28.022-16.555 25.109-5.922 16.934-1.558 5.703-.824 3.817-.306 1.908 0 0" fill="#ffffff" fill-rule="evenodd"/>
<path transform="matrix(1,0,0,-1,261.4059,39.581178)" d="M0 0C-1.063-.657-1.999-1.466-2.231-2.595-5.982-20.815 8.048-145.367 17.23-153.148 23.53-159.925 44.401-161.146 53.384-161.586 80.474-162.916 100.483-155.484 113.409-139.289 130.676-118.819 131.467-84.127 114.065-64.384 106.595-55.909 97.998-50.49 86.856-51.114 54.945-52.904 115.032-25.485 81.952 1.605 71.016 10.56 54.899 9.495 41.535 8.664 25.128 7.644 7.504 4.557 0 0M33.943-16.647C32.186-17.399 31-18.938 31.003-21.755 31.263-47.296 43.604-48.887 51.539-26.09 52.351-23.756 52.28-22.059 51.627-20.796 49.717-17.106 37.706-15.038 33.943-16.647M67.9-74.945C64.108-74.179 56.26-73.359 50.022-74.192 39.603-75.583 39.294-81.059 39.759-89.834 40.225-98.635 42.363-111.146 44.43-120.427 45.887-126.963 47.873-131.276 52.722-132.414 62.317-134.666 84.816-124.584 90.042-116.271 91.07-114.636 91.688-112.942 91.897-111.193 92.923-105.18 92.795-99.746 91.514-94.892 88.381-83.021 79.552-77.3 67.9-74.945" fill="#d82931" fill-rule="evenodd"/>
<path transform="matrix(1,0,0,-1,386.4434,124.41608)" d="M0 0C.786-23.362 1.761-39.678 2.804-52.025 3.369-58.717 2.776-68.912 9.638-72.604 15.95-76.002 37.093-76.373 40.773-69.027 44.16-62.267 39.177-6.758 34.908 18.539 33.686 25.785 32.22 37.557 22.415 37.448 16.619 36.856 7.978 32.854 3.173 27.459-2.318 21.293-.27 8.038 0 0" fill="#d82931" fill-rule="evenodd"/>
<path transform="matrix(1,0,0,-1,390.5747,74.1254)" d="M0 0C8.397-7.707 26.356-3.115 30.045 6.642 34.315 17.933 27.245 26.28 15.463 26.738-4.508 27.515-9.959 9.141 0 0" fill="#d82931" fill-rule="evenodd"/>
<path transform="matrix(1,0,0,-1,585.4924,71.99338)" d="M0 0C-61.525-27.628-63.583-119.204 .077-107.208 12.668-104.836 22.911-94.731 31.426-92.996 33.564-92.561 34.812-93.046 35.17-94.451 35.548-99.81 35.346-105.995 34.563-113.005 14.061-119.822-12.205-120.062-28.698-129.845-67.525-152.879-31.11-199.752 18.712-184.628 65.694-173.064 74.467-123.789 72.3-77.852 71.56-62.185 68.663-26.372 61.548-12.275 50.142 10.32 23.788 10.682 0 0M32.032-132.695C20.451-138.421 .546-137.992-10.668-142.798-17.778-145.846-18.029-151.929-15.947-156.264-10.322-167.979 25.276-168.488 30.664-140.494 31.115-138.149 31.553-135.556 32.032-132.695M13.212-23.581C-3.119-31.231-12.405-57.749-9.972-70.145-7.941-80.485 .488-75.906 5.938-71.185 17.498-61.172 26.297-39.858 24.273-28.487 23.027-21.481 19.159-20.794 13.212-23.581" fill="#d82931" fill-rule="evenodd"/>
<path transform="matrix(1,0,0,-1,467.3032,78.38327)" d="M0 0C-61.525-27.628-63.583-119.204 .077-107.208 12.668-104.836 22.911-94.731 31.426-92.996 33.564-92.561 34.812-93.046 35.17-94.451 35.548-99.81 35.346-105.995 34.563-113.005 14.061-119.822-12.205-120.062-28.698-129.845-67.525-152.879-31.11-199.752 18.712-184.628 65.694-173.064 74.467-123.789 72.3-77.853 71.56-62.185 68.663-26.373 61.548-12.275 50.142 10.32 23.788 10.682 0 0M13.806-24.333C-2.525-31.983-11.812-58.501-9.378-70.897-7.347-81.238 1.082-76.659 6.532-71.938 18.092-61.925 26.891-40.61 24.868-29.239 23.621-22.233 19.753-21.547 13.806-24.333M32.032-132.695C20.451-138.421 .547-137.992-10.667-142.798-17.778-145.846-18.029-151.929-15.947-156.265-10.322-167.979 25.276-168.488 30.664-140.494 31.115-138.149 31.553-135.556 32.032-132.695" fill="#d82931" fill-rule="evenodd"/>
<path transform="matrix(1,0,0,-1,622.3607,58.618074)" d="M0 0C-.596-.1-.926-.029-1.052 .171-1.829 1.41 5.254 7.557 5.724 7.96 25.853 25.228 47.168 14.336 52.073 1.715 53.903-2.994 53.297-7.718 49.793-11.763 34.742-29.138 23.481-2.757 6.94 .221 4.613 .64 2.3 .568 0 0" fill="#d82931" fill-rule="evenodd"/>
<path transform="matrix(1,0,0,-1,744.1166,190.82068)" d="M0 0C14.503 32.375-30.399 56.317-44.04 85.02-48.635 96.06-39.037 96.484-31.397 94.41-23.305 92.215-19.414 89.309-10.441 90.724 7.915 93.618 6.447 113.633-8.51 120.274-25.476 127.807-61.156 122.887-76.257 107.336-102.392 80.422-64.951 42.538-48.591 25.522-45.214 22.01-31.469 10.402-37.635 4.733-41.701 .994-50.536 3.898-55.093 5.418-88.05 16.412-95.16-15.646-65.968-24.098-46.288-29.796-9.058-20.219 0 0" fill="#d82931" fill-rule="evenodd"/>
<path transform="matrix(1,0,0,-1,27.371697,109.418979)" d="M0 0C22.845-5.854 56.651-8.63 100.441-8.244 101.216-8.266 164.953-10.184 202.203-.192 220.39 4.686 228.529 9.023 224.606 27.639 219.024 54.12 196.327 98.289 107.158 96.504 35.151 95.073-3.675 71.069-11.54 23.123-13.116 13.504-9.659 2.474 0 0" fill="#e68534"/>
<path transform="matrix(1,0,0,-1,231.2908,116.007389)" d="M0 0C-27.483-7.374-67.646-8.465-89.01-8.465-97.345-8.465-102.812-8.299-103.556-8.275-147.783-8.672-182.161-5.821-205.562 .174-208.22 .854-210.537 1.978-212.546 3.417-212.769 3.084-213.031 2.669-213.327 2.165-213.407 1.545-213.314 .79-212.535-.199-204.809-10.012-157.965-14.475-130.253-14.983L-125.944-15.062C-102.801-15.453-71.184-15.989-34.72-43.276-33.093-42.543-27.465-38.806-15.66-19.949-10.246-11.301-1.949-8.233 6.074-5.269 10.712-3.554 15.479-1.783 19.669 1.097 18.854 2.779 17.907 4.492 16.786 6.238 12.067 3.523 6.26 1.68 0 0" fill="#f4d153"/>
<path transform="matrix(1,0,0,-1,225.8612,197.79117)" d="M0 0C-6.926 .157-11.264-2.47-15.906-5.255-17.938-6.476-20.04-7.739-22.32-8.714L-22.9-8.966C-27.11-10.789-33.462-13.544-46.094-9.761-57.4-6.37-58.744-6.982-65.196-9.895L-66.889-10.657C-73.162-13.444-78.274-14.438-82.476-14.438-89.206-14.438-93.605-11.895-96.715-10.096-97.649-9.557-98.455-9.092-99.11-8.82-102.137-7.564-105.328-8.593-109.032-9.783-114.144-11.427-120.505-13.473-126.924-8.443-133.978-2.92-147.942-6.28-154.12-8.502-155.996-11.348-157.338-14.193-158.252-16.603-158.547-17.382-158.951-18.453-160.273-19.016-161.106-19.369-162.05-19.369-162.878-19.013-169.979-15.976-173.638-10.674-176.303-5.242-177.94-4.938-180.814-4.571-183.756-5.033-188.164-5.723-191.577-4.982-193.919-2.83-196.236-.7-197.256 2.565-196.949 6.876-196.815 8.765-197.108 9.176-201.09 10.092-201.573 10.204-202.052 10.315-202.509 10.434-203.099 10.582-205.931 11.359-208.974 12.99-202.15-7.227-188.789-19.541-168.235-24.547-140.262-31.361-92.188-31.076-91.69-31.074-91.098-31.072-32.844-30.626-11.895-23.525 6.851-17.17 19.267-8.959 25.96 12.968 24.931 11.308 23.739 9.701 22.311 8.222 16.835 2.543 9.339-.238 0 0" fill="#e68534"/>
<path transform="matrix(1,0,0,-1,61.754404,68.10837)" d="M0 0C1.128 .435 1.969 1.214 1.79 2.53 1.611 3.852 .296 4.754-1.009 4.395-2.176 4.072-2.896 2.808-2.574 1.638-2.318 .706-1.048-.404 0 0" fill="#efac65"/>
<path transform="matrix(1,0,0,-1,50.236505,52.323366)" d="M0 0C-.349-.338-.711-.653-1.082-.969-.728-.698-.735-.702-1.101-.984-1.527-1.232-1.894-1.543-2.201-1.918-2.878-2.605-3.505-3.34-3.77-4.295-3.936-4.9-3.907-5.503-3.942-6.114-4.022-7.423-2.854-9.149-1.481-9.348-.675-9.465 .007-9.599 .801-9.493 2.011-9.332 3.044-8.611 3.885-7.743 5.004-6.586 5.595-5.07 6.196-3.607 6.79-2.168 5.812-.117 4.492 .581 3.013 1.362 1.225 1.181 0 0" fill="#efac65"/>
<path transform="matrix(1,0,0,-1,27.011704,78.76099)" d="M0 0C-.124-.245-.245-.49-.369-.735-1.057-2.108-.733-3.816 .651-4.629 1.916-5.366 3.852-4.984 4.545-3.607 4.668-3.362 4.79-3.117 4.913-2.872 5.604-1.499 5.278 .212 3.894 1.022 2.629 1.759 .693 1.38 0 0" fill="#efac65"/>
<path transform="matrix(1,0,0,-1,39.470598,93.46597)" d="M0 0C.011-.093 .024-.183 .035-.276 .137-1.062 .569-1.501 1.362-1.605 1.455-1.616 1.547-1.627 1.638-1.638 3.123-1.83 3.71 .245 2.797 1.157 1.883 2.073-.19 1.474 0 0" fill="#efac65"/>
<path transform="matrix(1,0,0,-1,38.2614,93.101779)" d="M0 0C.433-1.115 1.174-1.929 2.437-2.099 4.167-2.335 5.759-.989 5.759 .779 5.759 2.364 4.417 3.71 2.827 3.71 1.068 3.71-.702 1.812 0 0" fill="#efac65"/>
<path transform="matrix(1,0,0,-1,82.0002,61.990877)" d="M0 0C-.294-1.024-.519-1.85-.441-2.922-.388-3.642-.494-4.223-.046-4.865 .384-5.487 .973-5.701 1.704-5.578 2.432-5.456 2.865-4.92 3.395-4.483 4.189-3.821 4.615-3.046 5.121-2.159 5.955-.698 5.326 1.165 3.781 1.817 2.238 2.465 .468 1.625 0 0" fill="#efac65"/>
<path transform="matrix(1,0,0,-1,59.0569,80.55667)" d="M0 0C.344 .523-.188-.102-.289-.205-.759-.684-1.04-1.28-1.227-1.916-1.726-3.589-.627-5.35 .998-5.834 2.708-6.346 4.362-5.512 5.483-4.231 6.858-2.666 6.858-.355 5.132 .98 3.426 2.298 1.152 1.748 0 0" fill="#efac65"/>
<path transform="matrix(1,0,0,-1,61.625,46.2406)" d="M0 0C.009 .044 .018 .086 .026 .128-.426-.459-.876-1.048-1.331-1.636-1.298-1.62-1.267-1.605-1.236-1.589-1.998-1.689-2.759-1.788-3.523-1.887-4.013-1.739-4.399-1.432-4.675-.971-4.805-.486-4.938 0-5.068 .486-4.905-.976-4.238-2.298-2.671-2.607-1.386-2.858-.203-2.053-.159-.693-.159-.636-.157-.576-.155-.519-.675-1.203-1.196-1.887-1.717-2.571-.611-2.121 .287-1.505 .598-.28 .896 .885 .6 2.11-.258 2.969-2.119 4.832-6.019 3.741-5.759 .779-5.631-.671-4.741-1.918-3.216-2.101-1.861-2.26-.296-1.45 0 0" fill="#efac65"/>
<path transform="matrix(1,0,0,-1,18.639599,190.97119)" d="M0 0C7.127-2.452 9.745-6.604 14.164-11.999 16.396-14.725 18.742-16.166 22.194-16.95 35.089-19.876 48.893-16.634 61.903-17.011 72.365-17.316 80.808-26.503 91.233-24.498 93.755-24.013 96.073-22.225 98.622-21.62 104.077-20.329 108.07-21.439 113.131-23.781 118.435-26.235 123.242-29.655 129.286-30.01 141.329-30.718 150.266-20.402 162.779-21.949 168.566-22.664 173.881-25.293 179.81-24.739 184.622-24.284 188.511-22.024 192.608-19.676 203.834-13.246 239.918-10.972 233.7 11.257 233.029 13.656 230.199 14.171 228.44 12.645 225.151 9.794 223.734 5.754 220.706 2.673 216.009-2.104 210.61-2.9 204.416-4.03 199.009-5.015 194.888-6.288 190.098-8.973 182.531-13.21 179.81-14.636 170.191-12.72 161.205-10.928 153.287-10.551 144.575-13.998 136.342-17.256 130.431-20.452 121.77-16.259 116.905-13.901 112.255-11.348 106.88-10.306 103.052-9.564 99.161-9.701 95.455-10.86 89.957-12.581 87.471-13.912 81.474-11.226 72.177-7.065 64.781-5.876 54.457-6.469 43.41-7.103 28.003-10.635 20.029-2.15 14.497 3.735 9.469 7.694 1.112 8.215-3.816 8.52-4.253 1.466 0 0" fill="#efac65"/>
<path transform="matrix(1,0,0,-1,26.2583,181.24649)" d="M0 0C3.187-.735 9.822-2.262 9.259-10.14 9.107-12.275 9.427-13.822 10.162-14.497 10.924-15.197 12.579-15.385 14.82-15.036 16.709-14.74 18.537-14.709 20.188-14.789 17.091-7.688 13.859-1.671 4.47 1.3-1.338 3.139-6.344 7.639-9.14 12.784-10.542 10.959-11.599 8.867-11.087 7.028-10.063 3.34-3.479 .874-1.252 .3-.839 .192-.422 .097 0 0" fill="#1e8762"/>
<path transform="matrix(1,0,0,-1,103.0186,201.02127)" d="M0 0C3.483-2.728 6.591-1.916 11.782-.249 16.102 1.139 21 2.713 26.271 .525 27.326 .088 28.352-.505 29.438-1.135 33.91-3.717 40.037-7.255 53.263-1.377L54.921-.631C62.724 2.896 65.558 3.737 78.649-.188 88.966-3.278 93.588-1.271 97.305 .34L97.916 .603C99.781 1.402 101.602 2.494 103.529 3.651 108.533 6.655 114.199 10.087 122.999 9.849 130.434 9.688 136.252 11.76 140.388 16.049 147.176 23.086 147.878 34.162 147.904 38.009 147.882 38.024 147.853 38.035 147.829 38.051 142.794 29.482 121.819 7.823 38.448 7.823 26.386 7.823 13.023 8.277-1.795 9.288-10.743 9.621-17.466 7.255-22.536 3.761-15.259 4.94-6.311 4.94 0 0" fill="#1e8762"/>
<path transform="matrix(1,0,0,-1,101.204898,185.09528)" d="M0 0C95.477-6.584 128.425 10.145 139.439 20.192 99.803 3.852 50.921 3.333 48.732 3.318 43.889 3.223 39.203 3.178 34.689 3.178-34.771 3.176-65.902 13.908-78.843 20.936-77.122 17.027-73.288 12.983-68.478 11.462-55.374 7.315-51.383-1.998-47.86-10.215-45.445-15.846-43.309-20.83-38.565-24.026-34.314-14.747-23.668 .773 0-.022Z" fill="#f4d153"/>
<path transform="matrix(1,0,0,-1,215.11469,213.50067)" d="M0 0C1.748 0 3.234 1.485 3.234 3.234 3.234 4.986 1.753 6.467 0 6.467-1.748 6.467-3.234 4.98-3.234 3.234-3.234 1.479-1.753 0 0 0" fill="#e68534"/>
<path transform="matrix(1,0,0,-1,158.2272,213.07178)" d="M0 0C-.349-.285-.669-.547-.976-.879-2.892-2.953-.497-5.942 1.982-4.713 2.388-4.509 2.728-4.275 3.103-4.022 4.366-3.163 4.803-1.532 3.821-.258 2.827 1.031 1.183 .973 0 0" fill="#e68534"/>
<path transform="matrix(1,0,0,-1,167.1984,217.52939)" d="M0 0C2.364 0 2.368 3.673 0 3.673-2.364 3.673-2.366 0 0 0" fill="#e68534"/>
<path transform="matrix(1,0,0,-1,104.98241,208.4094)" d="M0 0C-4.785 5.169-11.902 5.745-18.415 3.638-21.388 2.675-23.715 .96-26.227-.826-29.295-3.002-32.309 .035-36.269 .653-38.079 .936-38.168-3.214-40.057-3.37-41.51-3.494-43.125-4.902-42.477-6.547-40.353-11.935-34.391-13.689-28.867-12.553-19.466-10.624-15.371 .631-4.231-5.485-.728-7.408 2.706-2.922 0 0" fill="#efac65"/>
<path transform="matrix(1,0,0,-1,69.2611,214.68308)" d="M0 0C2.055 .232 3.662 1.143 5.366 2.271 7.319 3.563 8.911 3.443 11.193 3.174 10.917 5.216 10.641 7.257 10.363 9.299 8.149 8.535 5.896 9.381 3.827 8.275 2.627 7.635 2.17 5.882 2.898 4.737 4.81 1.728 9.061 2.212 12.023 3.284 15.411 4.514 14.714 9.052 11.193 9.412 8.727 9.663 6.235 9.719 3.955 8.602 2 7.644-.269 5.869-1.784 4.304-3.165 2.876-2.285-.258 0 0" fill="#efac65"/>
<path transform="matrix(1,0,0,-1,149.8496,175.15619)" d="M0 0C.596 .004 55.596 .594 94.87 19.296 97.166 21.682 109.032 35.19 103.562 53.934 99.113 51.122 94.404 49.368 89.811 47.67 82.192 44.852 75.61 42.419 71.394 35.685 61.203 19.408 53.237 10.513 47.717 9.248 47.189 9.127 46.714 9.078 46.288 9.078 45.13 9.078 44.342 9.44 43.92 9.705 43.838 9.756 43.757 9.813 43.679 9.873 8.538 36.565-20.934 37.064-44.613 37.466L-48.944 37.545C-56.404 37.68-120.834 39.285-135.285 53.756-137.854 45.911-138.976 34.08-130.568 21.068-129.061 19.563-105.439-2.053 0 0" fill="#dc4b39"/>
<path transform="matrix(1,0,0,-1,191.571,139.99939)" d="M0 0H-.369C-2.059 0-3.499-1.439-3.499-3.13-3.499-4.827-2.066-6.26-.369-6.26H0C1.691-6.26 3.13-4.823 3.13-3.13 3.13-1.433 1.697 0 0 0" fill="#e2872a"/>
<path transform="matrix(1,0,0,-1,187.595,133.02628)" d="M0 0C-.614 .369-1.307 .786-2.278 .737-5.812 .565-5.818-4.587-2.278-4.759-1.316-4.805-.567-4.362 0-4.019 1.508-3.117 1.508-.905 0 0" fill="#e2872a"/>
<path transform="matrix(1,0,0,-1,195.9855,137.3245)" d="M0 0C1.998 0 2 3.103 0 3.103-1.998 3.103-2.002 0 0 0" fill="#e2872a"/>
<path transform="matrix(1,0,0,-1,21.6907,166.57617)" d="M0 0C-.271-2.62 1.271-5.434 3.134-7.154 3.715-7.688 4.618-8.041 5.406-7.754 6.216-7.458 6.816-6.997 7.037-6.123 7.319-5.004 6.763-4.368 6.171-3.523 5.238-2.187 4.927-.92 4.476 .605 3.713 3.198 .256 2.474 0 0" fill="#e2872a"/>
<path transform="matrix(1,0,0,-1,108.4214,185.63059)" d="M0 0C-10.273 1.241-22.62 4.044-32.213-1.026-37.021-3.568-45.592-9.503-48.357-15.692-51.526-8.8-53.634-1.338-57.915 5.232-60.652 9.433-63.652 11.282-68.02 13.724-72.909 16.454-76.624 19.842-81.093 23.144-82.265 24.012-83.711 22.586-83.411 21.363-82.352 17.048-79.769 14.192-76.213 11.578-72.648 8.958-68.839 7.711-65.671 4.55-62.577 1.46-60.923-2.032-59.166-6.027-55.604-14.127-54.333-29.78-42.503-29.19-41.008-29.118-40.147-27.307-41.26-26.188-43.209-24.228-44.269-23.146-45.63-20.897-37.395-16.195-34.275-6.06-23.086-4.631-14.844-3.58-6.825-7.317 .81-2.989 2.32-2.132 1.468-.177 0 0" fill="#e2872a"/>
<path transform="matrix(1,0,0,-1,66.4448,186.0427)" d="M0 0C1.598 0 1.6 2.483 0 2.483-1.598 2.483-1.6 0 0 0" fill="#e2872a"/>
<path transform="matrix(1,0,0,-1,62.3117,208.96988)" d="M0 0C.528 .724 .675 1.655 .137 2.424-.062 2.708-.647 2.748-.713 2.311-.797 1.737-.837 1.168-1.073 .627-1.391-.104-.477-.651 0 0" fill="#e2872a"/>
<path transform="matrix(1,0,0,-1,59.5235,206.77228)" d="M0 0C-.079-.757-.093-1.391 .073-2.148 1.878-1.386 3.682-.625 5.487 .137 5.196 .748 5.317 1.368 5.143 2.009 4.907 2.861 4.099 3.518 3.212 3.525 1.263 3.54 .468 .965 .073-.572-.324-2.119 .58-3.788 2.141-4.216 3.609-4.62 5.461-3.721 5.785-2.148 5.944-1.38 5.931-.757 5.845 0 5.668 1.567 4.629 2.922 2.922 2.922 1.207 2.922 .161 1.576 0 0" fill="#e2872a"/>
<path transform="matrix(1,0,0,-1,251.8082,113.15457)" d="M0 0C-3.37-2.093-7.546-3.633-11.927-5.113-14.821-5.948-17.727-6.943-20.521-8.044-24.192-9.387-27.732-10.914-30.798-12.906-40.602-18.669-45.082-28.397-50.951-37.445-59.622-31.753-69.756-27.509-78.716-24.092-94.74-17.982-111.588-15.181-128.677-14.513-147.714-13.771-166.723-14.768-185.745-13.248-195.429-12.473-205.18-11.579-214.632-9.244-222.796-7.226-229.933-3.278-237.669-.225-239.36 .444-241.24-1.94-240.123-3.417-231.586-14.685-215.667-17.788-202.419-19.757-184.785-22.375-167.043-22.9-149.244-22.955-129.761-23.013-110.48-23.498-91.668-29.14-82.523-31.884-73.683-35.537-65.291-40.092-61.894-41.936-58.671-44.091-55.461-46.257-55.03-47.151-54.151-47.793-53.166-47.803-49.933-49.971-46.676-52.078-43.229-53.819-39.36-55.777-35.901-51.186-38.685-47.93-40.845-45.403-43.34-43.083-46.063-40.945-42.096-35.494-39.012-29.433-34.596-24.443-29.491-21.092-24.955-17.791-19.675-15.034-12.318-12.625-4.42-11.356 1.489-6.198 2.036-5.721 2.171-4.98 2.014-4.299 2.339-3.86 2.644-3.402 2.902-2.9 3.829-1.101 1.894 1.176 0 0" fill="#e2872a"/>
<path transform="matrix(1,0,0,-1,13.028702,115.31238)" d="M0 0C-.011-1.748 .927-3.176 2.19-4.342 3.483-5.531 5.147-6.805 6.926-5.84 6.62-5.922 6.313-6.006 6.008-6.088 6.11-6.083 6.213-6.079 6.315-6.074 7.582-6.024 8.304-4.739 7.723-3.622 7.677-3.532 7.628-3.439 7.58-3.348 7.664-3.653 7.745-3.96 7.829-4.267 7.884-2.693 6.569-1.929 5.578-.954 4.64-.029 3.869 .929 2.686 1.541 1.494 2.156 .009 1.404 0 0" fill="#e2872a"/>
<path transform="matrix(1,0,0,-1,13.649601,114.867099)" d="M0 0C.499-1.737 1.883-3.364 3.095-4.666 4.249-5.907 6.196-7.5 8.001-7.449 9.067-7.416 9.641-6.503 9.474-5.516 9.326-4.644 8.692-4.185 8.277-3.452 7.774-2.56 7.224-1.991 6.509-1.249 5.454-.155 4.284 1.58 2.898 2.229 1.413 2.925-.508 1.77 0 0" fill="#e2872a"/>
<path transform="matrix(1,0,0,-1,13.946899,113.58359)" d="M0 0C-.302-3.496 3.216-6.408 5.719-8.321 8.644-10.553 12.879-13.012 16.678-12.758 18.071-12.663 18.662-11.151 17.777-10.107 15.652-7.604 12.091-6.397 9.352-4.655 6.772-3.015 4.847-.02 2.104 1.205 1.097 1.655 .097 1.119 0 0" fill="#e2872a"/>
<path transform="matrix(1,0,0,-1,18.182599,119.41208)" d="M0 0C.492-.349 .894-.795 1.38-1.148 1.867-1.501 2.459-1.775 2.991-2.064 3.49-2.333 3.989-2.494 4.507-2.695 5.18-2.953 5.602-3.309 6.352-3.24 7.216-3.163 7.789-2.479 7.6-1.603 7.33-.364 5.814 .781 4.735 1.32 4.114 1.631 3.417 1.978 2.737 2.101 2.051 2.225 1.282 2.161 .587 2.168-.642 2.183-.896 .633 0 0" fill="#e2872a"/>
<path transform="matrix(1,0,0,-1,16.180199,116.31888)" d="M0 0C.863-2.187 2.34-3.454 4.249-4.752 6.333-6.169 8.805-7.955 11.405-7.992 12.486-8.008 13.23-6.745 12.654-5.814 10.348-2.077 5.057-1.94 2.379 1.384 1.505 2.468-.512 1.298 0 0" fill="#e2872a"/>
<path transform="matrix(1,0,0,-1,15.910702,115.77258)" d="M0 0C.66-2.466 2.574-3.874 4.633-5.238 7.015-6.816 9.16-7.639 11.99-7.458 12.784-7.408 13.107-6.549 12.612-5.957 10.937-3.953 9.105-2.803 6.785-1.556 4.732-.452 2.929 .704 .55 .72 .177 .724-.095 .355 0 0" fill="#e2872a"/>
<path transform="matrix(1,0,0,-1,15.0411,115.82837)" d="M0 0C1.556-3.527 4.679-5.728 7.706-7.951 10.562-10.047 14.085-12.275 17.744-12.241 19.046-12.23 21.968-8.178 20.917-7.672 10.131-2.476 6.974-1.029 3.229 2.49 1.407 4.203-.887 2.011 0 0" fill="#e2872a"/>
<path transform="matrix(1,0,0,-1,71.158,191.702)" d="M0 0C.965 .552 1.561 1.806 1.11 2.892 .658 3.986-.035 4.534-1.212 4.66-2.41 4.788-3.34 4.037-4.185 3.295-6.308 1.435-3.534-2.181-1.159-.627-.762-.369-.419-.035 .004 .172-.402 .062-.806-.046-1.212-.157-1.157-.155-1.101-.15-1.046-.148L-2.669 .523C-2.622 .488-2.576 .452-2.53 .415-2.746 .931-2.96 1.45-3.172 1.967-3.172 1.916-3.167 1.867-3.165 1.817-3.081 .236-1.439-.823 0 0" fill="#e2872a"/>
<path transform="matrix(1,0,0,-1,88.3289,193.91019)" d="M0 0C6.728 .536 10.966-1.673 16.55-4.088 18.21-4.807 20.004-5.068 21.775-4.964 24.465-4.805 26.423-3.578 28.855-2.717 39.055 .89 44.311-1.426 53.892-4.624 59.029-6.339 63.485-6.527 68.741-5.344 79.408-2.942 85.827 .664 97.3-2.28 103.134-3.774 107.981-4.121 113.488-1.355 116.25 .033 118.525 2.101 121.15 3.693 126.829 7.134 131.727 6.734 137.823 7.536 148.672 8.964 158.898 18.353 161.536 28.928 161.986 30.725 159.689 32.224 158.338 30.791 152.433 24.529 149.27 15.965 140.024 13.482 134.51 12.003 129.063 13.61 123.626 11.447 112.608 7.061 111.091 .689 97.102 3.56 91.277 4.757 87.037 5.704 81.059 4.324 70.37 1.856 64.862-2.371 53.371 1.605 47.946 3.481 43.556 5.957 37.508 5.538 34.513 5.331 31.985 4.562 29.204 3.507 23.388 1.302 21.335 1.057 15.248 3.256 9.498 5.335 5.606 5.167-.49 3.624-2.461 3.125-2.112-.168 0 0" fill="#00a575"/>
<path transform="matrix(1,0,0,-1,186.8795,186.62778)" d="M0 0C-.583-.662-.956-1.274-1.338-2.075-1.651-2.724-1.591-3.77-.808-4.101 4.523-6.353 11.131-4.571 16.272-2.576 15.709-1.243 15.146 .093 14.583 1.426 12.683 .033 10.447-.141 8.52-1.373 7.275-2.17 7.321-4.415 8.961-4.746 11.93-5.346 15.118-4.13 17.239-2.013 19.068-.188 16.757 2.483 14.583 1.426 9.639-.982 4.757-.49-.455-1.395 .154-1.739 .761-2.084 1.368-2.43 1.408-2.002 1.45-1.576 1.49-1.15 1.94-.241 .753 .856 0 0" fill="#00a575"/>
<path transform="matrix(1,0,0,-1,17.1265,167.60849)" d="M0 0C1.388-9.374 10.816-10.674 17.488-14.742 22.039-17.517 19.561-22.483 23.532-24.763 26.43-26.427 30.056-24.529 31.977-22.406 33.025-21.247 32.016-19.289 30.416-19.726 28.535-20.238 26.831-20.366 25.668-19.146 26.275-19.781 24.139-14.758 24.463-15.314 23.216-13.177 21.066-11.637 18.921-10.535 16.014-9.048 12.727-8.487 9.866-6.898 6.375-4.955 4.342-1.81 1.613 .94 .874 1.686-.132 .892 0 0" fill="#00a575"/>
<path transform="matrix(1,0,0,-1,13.716499,166.17179)" d="M0 0C1.163-4.134 3.953-7.644 7.447-10.089 10.93-12.528 16.638-14.674 20.887-14.208 22.642-14.016 23.485-12.18 22.302-10.794 19.804-7.864 15.155-8.639 11.833-6.924 8.12-5.008 5.874-1.929 3.971 1.675 2.814 3.865-.662 2.355 0 0" fill="#00a575"/>
<path transform="matrix(1,0,0,-1,13.815601,165.87)" d="M0 0C-2.525-3.949 3.28-8.143 6.101-10.103 11.142-13.599 17.314-14.151 22.293-17.331 23.421-18.053 25.304-17.131 25.147-15.694 24.622-10.882 19.069-11.125 15.391-9.842 12.447-8.816 9.661-7.357 7.134-5.534 4.827-3.872 3.507-1.084 1.132 .298 .735 .528 .243 .377 0 0" fill="#00a575"/>
<path transform="matrix(1,0,0,-1,26.1698,169.63138)" d="M0 0C0-2.466 3.724-5.576 6.138-4.894 7.123-4.618 7.494-3.693 7.355-2.757 7.191-1.682 6.216-.832 5.45-.137 4.712 .53 4.006 1.351 3.103 1.781 1.726 2.435 0 1.664 0 0" fill="#e2872a"/>
<path transform="matrix(1,0,0,-1,19.2583,132.76868)" d="M0 0C-1.75-6.562-1.3-14.122 3.536-19.422 4.368-20.333 5.977-19.382 5.611-18.212 3.699-12.142 1.179-6.511 .543-.073 .512 .221 .086 .322 0 0" fill="#d83a2f"/>
<path transform="matrix(1,0,0,-1,254.31409,136.85449)" d="M0 0C-9.668-3.333-19.468-6.344-29.588-8.761-32.528-9.465-35.475-10.134-38.426-10.785-46.085-21.881-52.235-28.019-56.746-29.054-57.274-29.173-57.751-29.222-58.177-29.222-59.333-29.222-60.121-28.862-60.545-28.597-60.627-28.544-60.706-28.489-60.786-28.429-66.306-24.236-71.687-20.691-76.93-17.687-87.427-19.115-97.98-20.174-108.593-20.779-133.751-22.214-159.123-21.552-184.121-18.296-198.022-16.486-211.873-13.84-225.496-10.54-230.244-9.39-235.146-7.818-240.097-6.361-239.064-9.844-237.452-13.489-235.033-17.234-233.524-18.74-209.904-40.353-104.465-38.303-103.991-38.298-69.334-37.918-35.42-28.449-34.588-28.178-33.751-27.915-32.923-27.63-32.846-27.65-32.769-27.655-32.694-27.675-24.75-25.337-16.899-22.488-9.593-19.007-8.004-17.353-1.834-10.363 0 0" fill="#d83a2f"/>
<path transform="matrix(1,0,0,-1,84.3455,148.8512)" d="M0 0C-.126-.243-.247-.49-.36-.739-1.071-2.254-1.433-3.77-.973-5.436-.585-6.851 .508-8.381 1.825-9.078 4.655-10.575 8.555-9.893 10.162-6.893 10.297-6.653 10.423-6.408 10.542-6.163 11.974-3.311 11.392 .583 8.352 2.19 5.58 3.653 1.53 3.046 0 0" fill="#d83a2f"/>
<path transform="matrix(1,0,0,-1,105.32829,154.4296)" d="M0 0C.77 1.011 .779 2.245 .475 3.419-.406 6.818-5.529 6.82-6.41 3.419-6.714 2.247-6.697 .998-5.935 0-4.269-2.183-1.669-2.183 0 0" fill="#d83a2f"/>
<path transform="matrix(1,0,0,-1,95.6868,144.23297)" d="M0 0C-.055-.894 .002-1.488 .647-2.165 1.196-2.741 2.22-2.741 2.768-2.165 3.406-1.492 3.472-.896 3.415 0 3.276 2.194 .139 2.198 0 0" fill="#d83a2f"/>
<path transform="matrix(1,0,0,-1,172.4493,39.317079)" d="M0 0C.064-2.36 2.099-4.099 3.823-5.523 5.576-6.973 7.851-7.957 9.831-9.105 12.968-10.922 16.647-6.487 13.8-3.958 12.1-2.448 10.476-.585 8.584 .647 6.77 1.828 4.242 3.359 2.057 2.702 .901 2.353-.033 1.245 0 0" fill="#efac65"/>
<path transform="matrix(1,0,0,-1,180.1661,58.460176)" d="M0 0C4.66 0 4.668 7.242 0 7.242-4.66 7.242-4.668 0 0 0" fill="#efac65"/>
<path transform="matrix(1,0,0,-1,189.0209,85.46997)" d="M0 0C-.234-1.256-.23-2.455 .426-3.611 1.146-4.882 2.477-5.719 3.942-5.774 6.339-5.867 8.01-4.242 8.277-1.929 8.478-.179 6.706 .987 5.22 1.128 4.66 1.192 4.922 1.126 6.008 .936 6.441 .503 6.873 .071 7.306-.362 7.149-.13 7.035 .093 6.92 .349 7.092-.289 7.266-.927 7.438-1.565 7.399-1.715 7.357-1.867 7.317-2.017 7.679-.073 6.781 2.168 4.666 2.649 2.803 3.075 .388 2.086 0 0" fill="#efac65"/>
<path transform="matrix(1,0,0,-1,249.92002,69.76697)" d="M0 0C-.07 .395-.146 .785-.227 1.171-.221 1.344-.223 1.521-.245 1.708-1.247 10.418-5.801 26.385-15.404 29.511-15.929 29.681-16.442 29.697-16.927 29.6-17.055 30.126-17.175 30.653-17.284 31.181-17.363 31.617-17.45 32.055-17.545 32.495-18.21 35.555-21.352 35.871-23.361 34.483-24.897 37.296-26.896 39.567-29.699 40.465-30.254 40.643-30.805 40.799-31.353 40.947-39.005 46.991-49.753 49.183-59.07 50.833-59.485 50.917-59.905 50.994-60.339 51.057-61.216 51.671-62.088 52.313-62.949 52.995-63.374 54.21-64.411 55.236-65.892 55.28-66.234 55.291-66.576 55.302-66.918 55.313-68.41 55.358-69.541 54.338-69.99 53.077-73.021 55.293-76.201 57.302-79.526 59.06-81.199 59.945-82.49 57.63-80.99 56.559-79.495 55.494-83.554 58.468-82.108 57.357-98.947 65.141-111.574 62.269-128.938 62.532-131.456 62.57-131.622 59.175-129.027 58.999-102.65 57.215-73.569 43.398-54.359 25.307-50.094 21.291-46.174 16.679-43.211 11.573-42.552 9.946-41.933 8.291-41.367 6.598-39.041-.366-37.156-8.438-40.096-15.382-42.417-20.86-46.975-24.507-52.087-27.177-56.377-27.369-60.75-28.298-64.868-28.835-73.969-30.021-83.076-31.169-92.185-32.27-105.57-33.886-119.956-36.059-133.832-35.525-135.255-35.409-136.687-35.32-138.13-35.265-142.155-34.934-146.123-34.346-149.996-33.411-153.931-32.46-157.379-30.983-161.504-31.689-165.199-32.325-167.702-34.354-171.486-33.683-175.119-33.038-177.116-31.451-181.045-32.043-184.288-32.528-184.91-34.1-188.018-32.659-190.649-31.438-190.821-28.853-194.452-28.972-196.946-29.054-197.483-30.61-199.661-31.502-203.561-33.096-204.617-31.537-208.612-30.871-214.273-29.928-221.873-34.219-226.409-29.52-227.35-28.543-228.466-28.511-229.348-28.986-230.639-25.813-231.217-22.421-231.504-19.01-232.025-12.823-231.118-7.025-230.555-.897-230.343 1.418-233.477 1.778-234.572 .191-241.6-9.991-241.629-27.029-233.257-36.414-232.488-37.274-231.13-37.614-229.962-37.375-229.994-37.489-230.024-37.604-230.038-37.727-230.152-38.69-229.639-39.902-228.673-40.287-228.047-40.694-227.211-41.084-226.443-41.199-226.183-41.238-225.912-41.236-225.646-41.199-222.171-44.733-215.556-45.239-210.946-46.096-204.159-47.358-197.192-48.645-190.359-47.303-189.939-47.221-189.648-47.026-189.463-46.771-176.566-48.612-163.466-49.181-150.631-48.8-144.316-48.612-137.955-48.314-131.582-47.88-133.734-48.98-133.036-52.558-130.397-52.62-123.284-52.785-115.997-51.335-109.051-49.896-106.82-49.433-104.52-48.999-102.222-48.503-102.028-49.626-101.194-50.574-99.695-50.496-93.004-50.15-86.223-49.178-79.471-47.874-79.31-48.078-79.098-48.259-78.815-48.394-68.392-53.351-53.769-49.239-43.311-46.036-42.648-45.833-41.98-45.624-41.311-45.41-30.852-46.444-16.659-42.849-8.82-38.136-8.362-37.861-7.933-37.56-7.518-37.247-5.741-36.762-4.156-35.839-2.77-34.609-1.487-33.59-.458-32.312 .337-30.858 2.312-27.683 3.529-23.789 3.917-20.062 4-19.746 4.065-19.419 4.119-19.087 4.375-18.696 4.539-18.234 4.55-17.702 4.635-13.365 4.487-3.273 0 0" fill="#efac65"/>
<path transform="matrix(1,0,0,-1,213.9442,221.31568)" d="M0 0C-20.949-7.101-79.203-7.547-79.792-7.549-80.291-7.551-128.368-7.836-156.34-1.022-176.894 3.984-190.255 16.296-197.079 36.515-194.038 34.883-191.204 34.107-190.612 33.956-190.155 33.839-189.679 33.727-189.193 33.617-185.213 32.698-184.917 32.29-185.052 30.401-185.361 26.09-184.341 22.823-182.024 20.695-179.682 18.543-176.267 17.802-171.862 18.492-168.921 18.952-166.045 18.587-164.405 18.283-161.743 12.848-158.084 7.549-150.983 4.509-150.153 4.156-149.211 4.156-148.379 4.507-147.056 5.072-146.652 6.141-146.357 6.922-145.445 9.332-144.101 12.177-142.225 15.023-136.047 17.245-122.083 20.603-115.029 15.082-108.61 10.052-102.249 12.096-97.137 13.742-93.433 14.932-90.242 15.961-87.215 14.705-86.56 14.433-85.754 13.967-84.821 13.427-81.711 11.63-77.309 9.087-70.582 9.087-66.379 9.087-61.267 10.078-54.994 12.868L-53.299 13.628C-46.849 16.543-45.505 17.153-34.199 13.762-21.567 9.981-15.215 12.736-11.005 14.559L-10.425 14.811C-8.145 15.786-6.043 17.049-4.011 18.267 .633 21.055 4.969 23.682 11.895 23.525 21.234 23.284 28.732 26.068 34.208 31.745 35.634 33.224 36.826 34.831 37.854 36.493 31.164 14.566 18.746 6.355 0 0M-198.795 47.096C-199.307 48.935-198.249 51.027-196.848 52.855-194.051 47.708-189.045 43.207-183.238 41.368-173.848 38.397-170.617 32.38-167.522 25.282-169.171 25.359-170.999 25.33-172.888 25.035-175.128 24.684-176.784 24.871-177.545 25.571-178.28 26.246-178.6 27.794-178.448 29.928-177.885 37.806-184.52 39.336-187.707 40.068-188.129 40.165-188.546 40.26-188.959 40.369-191.186 40.942-197.77 43.41-198.795 47.096M-151.325 12.193C-156.069 15.391-158.205 20.373-160.62 26.006-164.143 34.221-168.136 43.536-181.238 47.683-186.05 49.204-189.884 53.248-191.605 57.157-178.664 50.129-147.531 39.397-78.071 39.4-73.557 39.4-68.873 39.444-64.03 39.539-61.841 39.552-12.959 40.073 26.679 56.413 15.665 46.363-17.285 29.635-112.76 36.221L-112.762 36.199C-136.431 36.994-147.074 21.474-151.325 12.193M-112.742 29.582V29.582C-97.925 28.571-84.562 28.116-72.5 28.116 10.871 28.116 31.846 49.776 36.881 58.344 36.905 58.329 36.934 58.318 36.956 58.303 36.93 54.455 36.23 43.379 29.44 36.342 25.304 32.054 19.486 29.981 12.052 30.145 3.253 30.383-2.415 26.948-7.419 23.947-9.346 22.79-11.167 21.697-13.029 20.898L-13.643 20.633C-17.358 19.022-21.982 17.016-32.297 20.106-45.39 24.03-48.222 23.189-56.027 19.662L-57.684 18.918C-70.91 13.04-77.036 16.576-81.507 19.161-82.596 19.788-83.622 20.382-84.677 20.821-89.948 23.008-94.846 21.432-99.163 20.046-104.357 18.378-107.465 17.565-110.948 20.294-117.258 25.236-126.207 25.236-133.484 24.055-128.414 27.549-121.688 29.915-112.742 29.582M-199.402 99.916C-184.951 85.445-120.521 83.841-113.06 83.706L-108.73 83.626C-85.05 83.225-55.579 82.726-20.437 56.031-20.36 55.972-20.278 55.916-20.196 55.866-19.773 55.599-18.987 55.239-17.828 55.239-17.402 55.239-16.925 55.287-16.4 55.409-10.88 56.674-2.914 65.569 7.277 81.845 11.493 88.577 18.075 91.012 25.697 93.828 30.288 95.526 34.996 97.283 39.446 100.095 44.916 81.349 33.049 67.84 30.756 65.454-8.52 46.752-63.52 46.165-64.116 46.16-169.555 44.108-193.177 65.721-194.685 67.229-203.092 80.24-201.971 92.069-199.402 99.916M36.994 106.405C32.804 103.525 28.037 101.755 23.401 100.04 15.376 97.073 7.079 94.007 1.664 85.359-10.14 66.502-15.769 62.766-17.395 62.033-53.857 89.319-85.476 89.853-108.617 90.246L-112.928 90.325C-140.64 90.833-187.485 95.296-195.208 105.11-195.989 106.099-196.08 106.853-196.002 107.474-195.707 107.977-195.442 108.392-195.221 108.725-193.212 107.286-190.895 106.163-188.237 105.483-164.836 99.488-130.458 96.636-86.231 97.033-85.487 97.009-80.018 96.843-71.685 96.843-50.321 96.843-10.158 97.934 17.325 105.308 23.585 106.988 29.392 108.831 34.111 111.546 35.232 109.8 36.181 108.087 36.994 106.405M-198.132 135.018C-190.27 182.966-151.442 206.97-79.437 208.401 9.734 210.186 32.429 166.015 38.011 139.536 41.936 120.92 33.798 116.583 15.61 111.703-21.64 101.713-85.379 103.631-86.154 103.653-129.944 103.267-163.75 106.043-186.595 111.897-196.254 114.371-199.711 125.401-198.132 135.018M38.742 64.843C44.776 73.219 54.499 92.42 39.441 115.482 44.746 120.682 47.127 128.396 44.492 140.903 38.488 169.383 14.389 216.881-79.567 215.02-154.232 213.537-196.32 186.981-204.668 136.091-205.95 128.262-204.507 119.678-199.986 113.469-201.538 111.303-216.395 89.306-200.571 64.174-204.176 60.839-208.729 53.643-204.999 39.781-198.071 14.027-182.668-1.426-157.907-7.456-131.758-13.824-90.211-14.177-81.371-14.175-80.488-14.175-79.929-14.173-79.748-14.171-77.311-14.157-19.832-13.714 2.126-6.271 23.668 1.033 38.435 11.189 45.483 39.216 46.593 43.629 48.617 54.612 43.452 61.238 42.47 62.499 40.949 63.885 38.742 64.843" fill="#6b1c1c"/>
<g inkscape:groupmode="layer" inkscape:label="Biggs Lanches">
</g>
</g>
</g>
</g>
</g>
</svg>
