<?xml version="1.0" encoding="UTF-8"?>
<svg id="Camada_2" data-name="Camada 2" xmlns="http://www.w3.org/2000/svg" viewBox="0 0 272.46 232.02">
  <defs></defs>
  <g id="Layer_1" data-name="Layer 1">
    <g>
      <g>
        <g>
          <path class="cls-1" d="M59.29,112.99c-14.98,0-27.17,12.19-27.17,27.17s12.19,27.17,27.17,27.17c4.95,0,9.8-1.35,14.03-3.9.52-.31,1.19-.21,1.58.26,1.25,1.47,3.07,2.31,5,2.31h6.57v-25.84c0-14.98-12.19-27.17-27.17-27.17ZM59.29,154.19c-7.74,0-14.04-6.3-14.04-14.04s6.3-14.04,14.04-14.04,14.04,6.3,14.04,14.04-6.3,14.04-14.04,14.04Z"></path>
          <path class="cls-1" d="M240.64,112.99c-14.98,0-27.17,12.19-27.17,27.17s12.19,27.17,27.17,27.17c4.96,0,9.81-1.35,14.03-3.9.52-.31,1.19-.21,1.58.26,1.25,1.47,3.07,2.31,5,2.31h6.57v-25.84c0-14.98-12.19-27.17-27.17-27.17ZM240.64,154.19c-7.74,0-14.04-6.3-14.04-14.04s6.3-14.04,14.04-14.04,14.04,6.3,14.04,14.04-6.3,14.04-14.04,14.04Z"></path>
          <path class="cls-1" d="M13.72,117.79c-.34-.11-.62-.35-.76-.68-1.08-2.46-3.51-4.04-6.19-4.04H0v53.21h13.54v-22.47c0-8.96,6.97-16.33,15.77-16.96v-13.56c-5.16.21-10.17,1.71-14.58,4.38-.3.18-.67.23-1.01.12Z"></path>
          <path class="cls-1" d="M135.48,116.47c-.39.46-1.06.57-1.58.26-4.27-2.58-9.19-3.95-14.21-3.95-15.17,0-27.52,12.35-27.52,27.52s12.35,27.52,27.52,27.52c4.35,0,8.53-.99,12.4-2.95.38-.19.84-.18,1.21.05.37.22.59.62.59,1.05v1.57c0,7.83-6.37,14.2-14.19,14.2-7.41,0-13.51-5.71-14.14-12.96h-13.35c.65,14.6,12.73,26.28,27.49,26.28s27.52-12.35,27.52-27.52v-53.42h-6.66c-1.95,0-3.8.86-5.07,2.35ZM119.69,154.5c-7.83,0-14.2-6.37-14.2-14.19s6.37-14.2,14.2-14.2,14.19,6.37,14.19,14.2-6.37,14.19-14.19,14.19Z"></path>
          <path class="cls-1" d="M196.08,116.47c-.39.46-1.06.57-1.58.26-4.28-2.58-9.19-3.95-14.21-3.95-15.17,0-27.52,12.35-27.52,27.52s12.35,27.52,27.52,27.52c4.35,0,8.52-.99,12.4-2.95.38-.19.84-.18,1.2.05.37.22.59.62.59,1.05v1.57c0,7.83-6.37,14.2-14.19,14.2-7.41,0-13.51-5.71-14.14-12.96h-13.35c.65,14.6,12.73,26.28,27.49,26.28s27.52-12.35,27.52-27.52v-53.42h-6.66c-1.95,0-3.8.86-5.07,2.35ZM180.29,154.5c-7.83,0-14.19-6.37-14.19-14.19s6.37-14.2,14.19-14.2,14.19,6.37,14.19,14.2-6.37,14.19-14.19,14.19Z"></path>
        </g>
        <path class="cls-1" d="M271.86,114.79c.4.68.6,1.53.6,2.54v.06c0,1.01-.2,1.85-.6,2.53-.4.68-.95,1.18-1.66,1.52-.71.33-1.53.5-2.46.5s-1.76-.17-2.46-.5c-.71-.33-1.26-.84-1.66-1.52-.4-.68-.6-1.52-.6-2.53v-.06c0-1.01.2-1.86.6-2.54.4-.68.95-1.19,1.66-1.52.71-.33,1.53-.49,2.46-.49s1.76.16,2.46.49c.71.33,1.26.83,1.66,1.52ZM270.45,114.65c-.62-.59-1.52-.88-2.71-.88s-2.08.29-2.7.88c-.62.59-.93,1.48-.93,2.66v.09c0,1.19.31,2.08.93,2.66.62.59,1.52.88,2.7.88s2.09-.29,2.71-.88c.62-.59.93-1.48.93-2.66v-.09c0-1.19-.31-2.08-.93-2.66ZM269.96,119.6s-.01.05-.04.05h-.97s-.04,0-.04-.03c0-.08,0-.15-.02-.23s-.02-.15-.02-.2v-.57c0-.29-.08-.47-.23-.56s-.4-.13-.76-.13h-1.16v1.67s0,.04-.03.04h-.97s-.04-.01-.04-.04v-4.5s.01-.04.04-.04h2.45c.58,0,1,.09,1.27.27.27.18.4.47.4.88v.14c0,.33-.08.59-.24.78-.16.19-.36.31-.61.34v.04c.27.03.49.13.66.28s.25.38.25.68v.53c0,.25.02.45.05.58ZM268.62,116.02c-.13-.06-.36-.09-.69-.09h-1.2v1.19h1.26c.29,0,.49-.04.63-.13.13-.08.2-.24.2-.47v-.06c0-.23-.07-.37-.2-.44Z"></path>
      </g>
      <g>
        <path class="cls-1" d="M110.3,220.97c0,.1-.03.15-.09.15h-7.29v3.29h6.93s.04.01.06.04.03.07.03.1v1.72c0,.08-.03.13-.09.13h-6.93v5.39c0,.06-.03.09-.1.09h-2.35c-.06,0-.09-.03-.09-.09v-12.58c0-.06.03-.09.09-.09h9.74s.06.05.09.14v1.7Z"></path>
        <path class="cls-1" d="M112.63,225.65v-.33c0-2.16.59-3.76,1.77-4.79,1.18-1.04,2.76-1.56,4.74-1.56s3.6.52,4.76,1.55c1.16,1.03,1.75,2.63,1.75,4.8v.33c0,2.19-.58,3.79-1.75,4.82-1.16,1.03-2.75,1.55-4.76,1.55s-3.56-.52-4.74-1.56c-1.19-1.04-1.77-2.64-1.77-4.81ZM123.13,225.55v-.11c0-1.45-.36-2.56-1.07-3.32-.71-.77-1.69-1.15-2.91-1.15s-2.17.38-2.9,1.15c-.72.76-1.08,1.87-1.08,3.32v.11c0,1.45.36,2.55,1.08,3.32.73.76,1.69,1.15,2.9,1.15s2.2-.38,2.91-1.15c.71-.77,1.07-1.87,1.07-3.32Z"></path>
        <path class="cls-1" d="M128.34,225.65v-.33c0-2.16.59-3.76,1.77-4.79,1.18-1.04,2.76-1.56,4.74-1.56s3.6.52,4.76,1.55c1.16,1.03,1.75,2.63,1.75,4.8v.33c0,2.19-.58,3.79-1.75,4.82-1.16,1.03-2.75,1.55-4.76,1.55s-3.56-.52-4.74-1.56c-1.19-1.04-1.77-2.64-1.77-4.81ZM138.84,225.55v-.11c0-1.45-.36-2.56-1.07-3.32-.71-.77-1.69-1.15-2.91-1.15s-2.17.38-2.9,1.15c-.72.76-1.08,1.87-1.08,3.32v.11c0,1.45.36,2.55,1.08,3.32.73.76,1.69,1.15,2.9,1.15s2.2-.38,2.91-1.15c.71-.77,1.07-1.87,1.07-3.32Z"></path>
        <path class="cls-1" d="M156.72,225.89c0,3.99-2.11,5.99-6.33,5.99h-5.88c-.06,0-.1-.03-.1-.09v-12.58c0-.06.03-.09.1-.09h5.88c4.22,0,6.33,1.99,6.33,5.99v.78ZM153.21,222.14c-.65-.68-1.6-1.02-2.82-1.02h-3.44v8.77h3.44c1.23,0,2.17-.34,2.82-1.02s.97-1.71.97-3.09v-.56c0-1.38-.32-2.41-.97-3.09Z"></path>
        <path class="cls-1" d="M159.23,227.72v-.52c0-.06.03-.09.09-.09h2.35c.06,0,.09.03.09.09v.51c0,.82.27,1.41.82,1.77.54.36,1.42.54,2.62.54.87,0,1.53-.04,2.01-.11s.83-.23,1.07-.47.36-.61.36-1.1v-.25c0-.4-.16-.72-.5-.95-.33-.24-.75-.41-1.25-.52-.5-.12-1.19-.23-2.07-.35-1.17-.17-2.12-.35-2.85-.54-.73-.19-1.36-.52-1.88-.99-.53-.46-.79-1.11-.79-1.94v-.27c0-2.35,1.9-3.53,5.72-3.53,1.99,0,3.5.33,4.54.99,1.04.66,1.56,1.73,1.56,3.23v.44c0,.06-.03.09-.09.09h-2.35c-.06,0-.09-.03-.09-.09v-.42c0-.77-.27-1.34-.82-1.7-.55-.36-1.45-.54-2.69-.54-2.17,0-3.24.51-3.24,1.52v.22c0,.34.15.61.46.81s.69.35,1.16.46,1.12.23,1.98.36c1.28.21,2.28.4,3.01.58.72.18,1.36.49,1.9.93.55.44.82,1.05.82,1.84v.76c0,1.35-.49,2.29-1.49,2.8-1,.52-2.49.78-4.48.78s-3.48-.33-4.48-.99c-.99-.65-1.49-1.76-1.49-3.32Z"></path>
      </g>
      <rect class="cls-1" x="93.09" y="208.07" width="85.37" height=".59"></rect>
      <g>
        <path class="cls-1" d="M133.79,65.16c-2.93.71-5.18-2.99-2.76-5.02,2.66-2.24,6.63,1.49,3.94,4.37-.25.27-.82.56-1.18.65Z"></path>
        <path class="cls-1" d="M141.28,2.23c30.08,13.3,9.65,56.81-19,42.85-28.37-13.83-8.59-55.05,19-42.85Z"></path>
        <path class="cls-1" d="M114.88,69.38c12.8,6.52,4.86,25.73-8.67,21.21-16.04-5.37-6.44-28.9,8.67-21.21Z"></path>
        <path class="cls-1" d="M159.97,74.6c16.67,8.6,2.13,33.38-14.08,21.58-12.48-9.08-.42-29.06,14.08-21.58Z"></path>
        <path class="cls-1" d="M161.49,46.98c12.34-2.92,17.24,15.39,5.26,18.4-12.18,3.05-17.44-15.51-5.26-18.4Z"></path>
        <path class="cls-1" d="M109.07,46.96c6.77,3.17,3.74,14.11-3.79,12.78-10.6-1.87-5.61-17.18,3.79-12.78Z"></path>
      </g>
    </g>
  </g>
</svg>