<svg width="273" height="224" viewBox="0 0 273 224" fill="none" xmlns="http://www.w3.org/2000/svg">
<g clip-path="url(#clip0_1_167)">
<path d="M160.58 16.19C164.85 14.96 172.39 16.43 173.65 21.76C174.19 24.06 172.78 27.36 173.73 28.92C174.68 30.48 180.5 27.63 183.62 30.08C190.49 35.48 185.34 49.58 181.43 55.3C160.65 85.77 109.32 97.11 80.99 69.64C78.65 67.38 74.03 61.14 76 57.77C76.38 57.11 78.14 54.58 83.82 58.18C85.88 59.49 88.24 60.42 89.46 60.79C106.78 66.08 117.59 57.92 129.7 46.32C138.04 38.33 150.54 19.06 160.59 16.18L160.58 16.19ZM162.06 26.02C155.79 26.35 151.22 31.93 147.09 36.46C137.64 46.86 126.35 63.51 112.76 67.49C110.32 68.2 108.81 68.56 105.32 68.52C117.97 71.58 130.72 60.78 139.36 50.67C145.07 44 150.84 36.22 157 29.84C158.24 28.55 159.67 27.46 161.2 26.53L162.05 26.01L162.06 26.02Z" fill="#E86820"/>
<path d="M188.42 20.19C190.85 24.84 191.34 30.38 191.2 33.01C191.06 35.7 190.23 37.91 189.95 36.7C189.06 32.84 186.94 26.95 183.69 26.01C181.91 25.5 179.71 25.9 177.8 26.58C176.86 26.91 175.93 26 176.2 24.99C176.59 23.53 177.08 21.86 177.06 21.3C176.86 15.07 171.57 14.32 167.36 13.32C165.01 12.76 167.68 12.28 168.42 12.22C173.51 11.77 177.36 12.58 180.26 13.81C184.85 15.76 185.93 15.06 188.48 12.51C190.64 10.35 191.53 7.53001 190.75 2.53001C190.48 0.800013 196.31 -1.11999 196.3 0.810013C196.28 4.03001 195.46 9.09001 192.05 13.35C190.17 15.7 187.16 17.76 188.44 20.2L188.42 20.19Z" fill="#E86820"/>
<path d="M59.36 104.58C44.36 104.58 32.16 116.78 32.16 131.78C32.16 146.78 44.36 158.98 59.36 158.98C64.32 158.98 69.18 157.63 73.4 155.08C73.92 154.77 74.59 154.87 74.98 155.34C76.23 156.81 78.06 157.66 79.98 157.66H86.55V131.78C86.55 116.78 74.35 104.58 59.35 104.58H59.36ZM59.36 145.84C51.61 145.84 45.31 139.54 45.31 131.79C45.31 124.04 51.61 117.74 59.36 117.74C67.11 117.74 73.41 124.04 73.41 131.79C73.41 139.54 67.11 145.84 59.36 145.84Z" fill="#E86820"/>
<path d="M240.95 104.58C225.95 104.58 213.75 116.78 213.75 131.78C213.75 146.78 225.95 158.98 240.95 158.98C245.91 158.98 250.77 157.63 254.99 155.08C255.51 154.76 256.18 154.87 256.57 155.34C257.82 156.81 259.65 157.66 261.57 157.66H268.14V131.78C268.14 116.78 255.94 104.58 240.93 104.58H240.95ZM240.95 145.84C233.2 145.84 226.9 139.54 226.9 131.79C226.9 124.04 233.2 117.74 240.95 117.74C248.7 117.74 255 124.04 255 131.79C255 139.54 248.7 145.84 240.95 145.84Z" fill="#E86820"/>
<path d="M13.74 109.39C13.4 109.28 13.12 109.04 12.98 108.71C11.9 106.25 9.46 104.66 6.78 104.66H0V157.94H13.56V135.44C13.56 126.47 20.54 119.09 29.35 118.45V104.87C24.19 105.08 19.16 106.58 14.75 109.26C14.45 109.44 14.08 109.49 13.74 109.38V109.39Z" fill="#E86820"/>
<path d="M135.65 108.07C135.26 108.53 134.59 108.64 134.07 108.33C129.79 105.74 124.87 104.38 119.85 104.38C104.66 104.38 92.29 116.74 92.29 131.94C92.29 147.14 104.65 159.5 119.85 159.5C124.21 159.5 128.39 158.51 132.27 156.54C132.65 156.35 133.11 156.36 133.48 156.59C133.85 156.82 134.07 157.21 134.07 157.64V159.22C134.07 167.06 127.69 173.43 119.86 173.43C112.44 173.43 106.33 167.71 105.7 160.45H92.33C92.98 175.07 105.08 186.77 119.86 186.77C134.64 186.77 147.42 174.41 147.42 159.21V105.72H140.75C138.8 105.72 136.94 106.58 135.67 108.07H135.65ZM119.84 146.14C112 146.14 105.63 139.76 105.63 131.93C105.63 124.1 112.01 117.72 119.84 117.72C127.67 117.72 134.05 124.1 134.05 131.93C134.05 139.76 127.67 146.14 119.84 146.14Z" fill="#E86820"/>
<path d="M196.33 108.07C195.94 108.53 195.27 108.64 194.75 108.33C190.47 105.74 185.55 104.38 180.53 104.38C165.34 104.38 152.97 116.74 152.97 131.94C152.97 147.14 165.33 159.5 180.53 159.5C184.89 159.5 189.07 158.51 192.95 156.54C193.33 156.35 193.79 156.36 194.16 156.59C194.53 156.82 194.75 157.21 194.75 157.64V159.22C194.75 167.06 188.38 173.43 180.54 173.43C173.12 173.43 167.01 167.71 166.38 160.45H153.01C153.66 175.07 165.76 186.77 180.54 186.77C195.32 186.77 208.1 174.41 208.1 159.21V105.72H201.43C199.48 105.72 197.63 106.58 196.35 108.07H196.33ZM180.52 146.14C172.68 146.14 166.31 139.76 166.31 131.93C166.31 124.1 172.69 117.72 180.52 117.72C188.35 117.72 194.73 124.1 194.73 131.93C194.73 139.76 188.35 146.14 180.52 146.14Z" fill="#E86820"/>
<path d="M272.21 106.38C272.61 107.06 272.81 107.91 272.81 108.92V108.98C272.81 109.99 272.61 110.84 272.21 111.52C271.81 112.2 271.26 112.7 270.55 113.04C269.84 113.37 269.02 113.54 268.08 113.54C267.14 113.54 266.32 113.37 265.61 113.04C264.9 112.71 264.35 112.2 263.95 111.52C263.55 110.84 263.35 110 263.35 108.98V108.92C263.35 107.91 263.55 107.06 263.95 106.38C264.35 105.7 264.9 105.19 265.61 104.86C266.32 104.53 267.14 104.37 268.08 104.37C269.02 104.37 269.84 104.53 270.55 104.86C271.26 105.19 271.81 105.69 272.21 106.38ZM270.8 106.25C270.18 105.66 269.28 105.36 268.09 105.36C266.9 105.36 266.01 105.66 265.38 106.25C264.76 106.84 264.44 107.73 264.44 108.92V109.01C264.44 110.2 264.75 111.09 265.38 111.68C266 112.27 266.91 112.57 268.09 112.57C269.27 112.57 270.18 112.28 270.8 111.68C271.42 111.09 271.73 110.2 271.73 109.01V108.92C271.73 107.73 271.42 106.84 270.8 106.25ZM270.31 111.2C270.31 111.2 270.3 111.25 270.27 111.25H269.3C269.3 111.25 269.26 111.25 269.26 111.22C269.26 111.14 269.26 111.07 269.24 110.99C269.22 110.91 269.22 110.84 269.22 110.79V110.22C269.22 109.93 269.14 109.75 268.99 109.66C268.84 109.57 268.59 109.53 268.23 109.53H267.07V111.2C267.07 111.2 267.07 111.24 267.04 111.24H266.07C266.07 111.24 266.03 111.23 266.03 111.2V106.7C266.03 106.7 266.04 106.66 266.07 106.66H268.52C269.1 106.66 269.53 106.75 269.79 106.93C270.06 107.11 270.19 107.4 270.19 107.82V107.96C270.19 108.29 270.11 108.55 269.95 108.74C269.79 108.93 269.59 109.05 269.34 109.08V109.12C269.61 109.15 269.83 109.25 270 109.4C270.17 109.55 270.25 109.78 270.25 110.08V110.61C270.25 110.86 270.27 111.06 270.3 111.19L270.31 111.2ZM268.96 107.62C268.83 107.56 268.6 107.53 268.27 107.53H267.07V108.72H268.33C268.62 108.72 268.83 108.68 268.96 108.59C269.09 108.51 269.16 108.35 269.16 108.12V108.06C269.16 107.83 269.09 107.69 268.96 107.62Z" fill="#E86820"/>
<path d="M67.22 210.97C67.22 210.91 67.25 210.88 67.31 210.88H70.84C70.84 210.88 70.9 210.9 70.91 210.93L73.77 218.23C74.35 219.73 74.67 220.61 74.73 220.89H74.93C74.97 220.65 75.28 219.76 75.87 218.23L78.71 210.93C78.71 210.93 78.76 210.88 78.8 210.88H82.31C82.37 210.88 82.4 210.91 82.4 210.97V223.54C82.4 223.6 82.37 223.63 82.31 223.63H79.96C79.9 223.63 79.87 223.6 79.87 223.54V217.37C79.87 215.89 79.94 214.81 80.07 214.13H79.87L76.09 223.57C76.09 223.57 76.07 223.62 76.02 223.62H73.63C73.63 223.62 73.56 223.6 73.54 223.57L69.76 214.13H69.58C69.65 214.52 69.7 214.95 69.72 215.44C69.74 215.93 69.76 216.57 69.76 217.37V223.54C69.76 223.6 69.73 223.63 69.67 223.63H67.32C67.26 223.63 67.23 223.6 67.23 223.54V210.97H67.22Z" fill="#E86820"/>
<path d="M85.92 210.88H88.27C88.33 210.88 88.36 210.91 88.36 210.97V216.21H90.89C91.1 215.85 91.32 215.53 91.56 215.27L91.8 214.96L94.91 210.95C94.91 210.95 94.98 210.88 95.02 210.88H97.64C97.64 210.88 97.7 210.89 97.72 210.92C97.74 210.94 97.73 210.97 97.72 210.99L93.02 217.19L97.92 223.52C97.92 223.52 97.95 223.57 97.92 223.59C97.9 223.61 97.88 223.63 97.84 223.63H95.13C95.13 223.63 95.07 223.61 95.02 223.56L91.71 219.44C91.66 219.37 91.56 219.23 91.4 219.02C91.24 218.81 91.07 218.54 90.89 218.21H88.36V223.54C88.36 223.6 88.33 223.63 88.27 223.63H85.92C85.86 223.63 85.83 223.6 85.83 223.54V210.97C85.83 210.91 85.86 210.88 85.92 210.88Z" fill="#E86820"/>
<path d="M110.74 212.72C110.74 212.72 110.73 212.8 110.7 212.83C110.68 212.85 110.65 212.87 110.63 212.87H105.73V223.54C105.73 223.6 105.7 223.63 105.64 223.63H103.29C103.23 223.63 103.2 223.6 103.2 223.54V212.87H98.3C98.23 212.87 98.19 212.82 98.19 212.73V210.99C98.19 210.99 98.2 210.94 98.23 210.92C98.25 210.9 98.28 210.88 98.3 210.88H110.63C110.63 210.88 110.71 210.93 110.74 211.03V212.73V212.72Z" fill="#E86820"/>
<path d="M121.63 218.38C121.63 218.44 121.6 218.47 121.54 218.47H117.87V222.14C117.87 222.2 117.84 222.23 117.78 222.23H116.15C116.08 222.23 116.04 222.2 116.04 222.14V218.47H112.37C112.31 218.47 112.28 218.44 112.28 218.38V216.75C112.28 216.69 112.31 216.66 112.37 216.66H116.04V212.97C116.04 212.91 116.07 212.88 116.13 212.88H117.76C117.82 212.88 117.85 212.91 117.85 212.97V216.66H121.54C121.6 216.66 121.63 216.69 121.63 216.75V218.38Z" fill="#E86820"/>
<path d="M123.17 210.97C123.15 210.91 123.17 210.88 123.24 210.88H125.7C125.7 210.88 125.78 210.9 125.81 210.95L129.28 220.23C129.57 221.13 129.74 221.69 129.79 221.89H130.3C130.35 221.69 130.52 221.13 130.81 220.23L134.3 210.95C134.3 210.95 134.35 210.88 134.39 210.88H136.85C136.92 210.88 136.95 210.91 136.92 210.97L132.15 223.54C132.13 223.6 132.1 223.63 132.06 223.63H128.08C128.08 223.63 128 223.6 127.97 223.54L123.18 210.97H123.17Z" fill="#E86820"/>
<path d="M141.34 216.16H148.26C148.32 216.16 148.35 216.19 148.35 216.25V218.06C148.35 218.12 148.32 218.15 148.26 218.15H141.34V221.64H148.63C148.69 221.64 148.72 221.67 148.72 221.73V223.54C148.72 223.6 148.69 223.63 148.63 223.63H138.9C138.84 223.63 138.81 223.6 138.81 223.54V210.97C138.81 210.91 138.84 210.88 138.9 210.88H148.63C148.69 210.88 148.72 210.91 148.72 210.97V212.72C148.72 212.82 148.69 212.86 148.63 212.86H141.34V216.15V216.16Z" fill="#E86820"/>
<path d="M151.62 210.97C151.62 210.91 151.65 210.88 151.71 210.88H154.8C154.8 210.88 154.86 210.9 154.87 210.93L160.76 220.3H160.89C160.79 219.56 160.75 218.54 160.75 217.23V210.97C160.75 210.91 160.78 210.88 160.84 210.88H163.19C163.25 210.88 163.28 210.91 163.28 210.97V223.54C163.28 223.6 163.25 223.63 163.19 223.63H160.12C160.12 223.63 160.05 223.61 160.03 223.58L154.12 214.16H153.98C154.1 214.85 154.16 215.81 154.16 217.05V223.54C154.16 223.6 154.13 223.63 154.07 223.63H151.72C151.66 223.63 151.63 223.6 151.63 223.54V210.97H151.62Z" fill="#E86820"/>
<path d="M179.01 217.64C179.01 221.63 176.9 223.63 172.68 223.63H166.8C166.74 223.63 166.71 223.6 166.71 223.54V210.97C166.71 210.91 166.74 210.88 166.8 210.88H172.68C176.9 210.88 179.01 212.88 179.01 216.87V217.65V217.64ZM175.5 213.89C174.85 213.21 173.91 212.87 172.68 212.87H169.24V221.64H172.68C173.91 221.64 174.85 221.3 175.5 220.62C176.15 219.94 176.48 218.91 176.48 217.54V216.98C176.48 215.61 176.15 214.58 175.5 213.9V213.89Z" fill="#E86820"/>
<path d="M193.86 223.62H191.4C191.4 223.62 191.33 223.59 191.31 223.53L190.26 220.73H183.88L182.83 223.53C182.81 223.59 182.77 223.62 182.72 223.62H180.26C180.26 223.62 180.22 223.61 180.2 223.58C180.18 223.56 180.18 223.53 180.2 223.51L184.99 210.94C184.99 210.94 185.05 210.87 185.1 210.87H189.08C189.08 210.87 189.15 210.89 189.17 210.94L193.94 223.51C193.94 223.51 193.94 223.56 193.94 223.58C193.92 223.6 193.9 223.62 193.88 223.62H193.86ZM187.82 214.28L187.66 213.76C187.49 213.24 187.38 212.86 187.32 212.62H186.81C186.76 212.83 186.59 213.38 186.3 214.28L184.62 218.75H189.5L187.82 214.28Z" fill="#E86820"/>
<path d="M195.29 219.47V218.95C195.29 218.89 195.32 218.86 195.38 218.86H197.73C197.79 218.86 197.82 218.89 197.82 218.95V219.46C197.82 220.28 198.09 220.87 198.63 221.23C199.17 221.59 200.05 221.77 201.25 221.77C202.12 221.77 202.79 221.73 203.26 221.66C203.73 221.59 204.09 221.43 204.33 221.19C204.57 220.95 204.69 220.58 204.69 220.09V219.84C204.69 219.44 204.52 219.13 204.19 218.89C203.86 218.65 203.44 218.48 202.94 218.37C202.44 218.25 201.75 218.14 200.87 218.02C199.7 217.85 198.75 217.67 198.02 217.48C197.29 217.29 196.66 216.96 196.14 216.49C195.62 216.02 195.35 215.38 195.35 214.55V214.28C195.35 211.93 197.25 210.75 201.06 210.75C203.05 210.75 204.56 211.08 205.6 211.74C206.64 212.4 207.15 213.47 207.15 214.97V215.4C207.15 215.46 207.12 215.49 207.06 215.49H204.71C204.65 215.49 204.62 215.46 204.62 215.4V214.98C204.62 214.21 204.35 213.64 203.8 213.28C203.25 212.92 202.36 212.74 201.12 212.74C198.96 212.74 197.88 213.25 197.88 214.26V214.48C197.88 214.82 198.03 215.09 198.34 215.28C198.65 215.48 199.03 215.63 199.5 215.74C199.96 215.85 200.62 215.97 201.48 216.1C202.76 216.31 203.76 216.5 204.48 216.68C205.2 216.86 205.84 217.17 206.39 217.61C206.94 218.05 207.21 218.66 207.21 219.44V220.2C207.21 221.55 206.71 222.48 205.72 223C204.73 223.52 203.23 223.78 201.24 223.78C199.25 223.78 197.76 223.45 196.77 222.79C195.77 222.13 195.28 221.03 195.28 219.47H195.29Z" fill="#E86820"/>
<path d="M179.6 199.79H94.12V200.38H179.6V199.79Z" fill="#E86820"/>
</g>
<defs>
<clipPath id="clip0_1_167">
<rect width="272.81" height="223.77" fill="white"/>
</clipPath>
</defs>
</svg>
