<svg width="487" height="126" viewBox="0 0 487 126" fill="none" xmlns="http://www.w3.org/2000/svg">
<g clip-path="url(#clip0_1_314)">
<path d="M96.26 8.23999C97 8.96999 97.63 9.80999 98.24 10.66C102.18 16.17 108.5 18.95 113.13 23.75C127.42 38.57 118.44 61.64 98.27 63.96C91.81 64.7 81.81 62.09 80.69 54.4C79.97 49.46 87.06 42.04 89.79 38.03C93.64 32.36 97.52 24.89 97.21 17.86C97.09 15.26 96.29 12.79 95.66 10.29C95.44 9.40999 95.24 8.52999 95.1 7.63999C95.02 7.11999 95.63 7.60999 96.26 8.23999ZM98.73 60.48C106.28 57.52 111.57 50.03 112.53 41.91C113.44 34.2 111.38 29.45 108.44 25.26C106.31 22.22 101 17.97 101 17.97C106.89 25.12 110.52 29.27 110.64 39.38C110.73 47.1 106.8 54.8 100.58 59.26L98.74 60.47L98.73 60.48ZM89.31 60.06C89.71 58.85 88.67 57.36 87.3 56.14C86.69 55.6 85.18 55.3 84.05 55.97C83.38 56.36 83.91 57.28 84.27 57.72C85.32 59 89.09 60.86 89.32 60.06H89.31Z" fill="#2D1B4E"/>
<path d="M49.2 88.32C48.15 79.5 52.55 62.04 61.92 53.98C60.12 57.29 58.44 60.65 56.88 64.06C53.57 72.86 48.87 83.62 54.63 101.26C55.43 100.96 57.28 100 56.04 97.45C51.89 88.92 59.92 89.47 61.35 89.1C78.86 84.57 76.32 58.45 71.33 38.98C52.87 43.78 31.32 67.96 49.2 88.33V88.32Z" fill="#2D1B4E"/>
<path d="M56.1 16.47L54.91 17.55C54.91 17.55 55.72 13.69 54.6 10.62C54.58 10.7 53.56 11.58 53.56 11.58C51.34 3.76001 54.93 0.0100098 54.93 0.0100098C44.48 1.14001 36.66 5.63001 36.66 5.63001L37 4.46001C32.9 6.39001 29.94 9.04001 29.94 9.04001L29.98 7.99001C26.39 10.22 23.93 13.53 23.93 13.53L23.5 12.56C18.74 17.39 18 19.99 18 19.99L17.38 18.59C17.38 18.59 11.57 28.52 12.36 38.86C13.15 49.2 26.65 54.63 26.65 54.63C24.91 48.09 24.9 42.02 25.85 36.59C25.15 35.57 24.18 34.25 22.9 32.8C20.84 30.47 20.43 25.71 21.28 22.94C21.28 22.94 20.29 27.13 23.74 30.82C25.27 32.46 25.94 33.27 26.38 34.04C29.92 19.14 40.38 9.69001 40.38 9.69001C39.35 11 38.42 12.29 37.54 13.58C35.75 15.9 32.55 20.66 30.38 27.34C31.07 26.47 32.01 25.46 33.26 24.46C36.86 21.59 39.59 20.2 41.22 17.57C41.22 17.57 41.51 18.93 38.41 21.78C35.9 24.09 31.67 26.89 29.36 30.98C29.1 32.07 27.44 37.38 28.19 42.05C29.03 40.65 30.37 38.97 32.45 37.53C37.06 34.33 44.54 33.26 46.77 27.8C46.77 27.8 48.34 31.2 40.09 36.03C33.59 39.83 30.3 42.16 28.12 48.12C28.68 55.74 31.83 62.57 32.86 63.96C33.59 64.95 36.5 63.48 36.97 62.42C37.02 62.32 37.05 62.21 37.07 62.09C37.15 61.67 33.6 61.74 32.08 56.85C31.49 54.95 32.94 53.63 34.86 53.08C55.65 47.09 56.62 31.69 56.62 31.69L54.41 32.47C57.81 28.87 56.97 23.52 56.79 23.68C56.08 24.32 55.25 24.67 55.25 24.67C57.19 20.73 56.08 16.47 56.08 16.47H56.1Z" fill="#2D1B4E"/>
<path d="M95.02 71.5501C98.38 70.5901 104.3 71.74 105.29 75.93C105.72 77.74 104.61 80.33 105.35 81.56C106.08 82.77 110.67 80.55 113.12 82.47C118.52 86.71 114.47 97.79 111.4 102.28C95.07 126.21 54.76 135.12 32.5 113.54C30.66 111.76 27.03 106.86 28.58 104.22C28.88 103.7 30.26 101.71 34.72 104.54C36.34 105.57 38.19 106.3 39.15 106.59C52.76 110.75 61.24 104.33 70.76 95.22C77.31 88.95 87.13 73.8101 95.02 71.5501ZM96.19 79.26C91.27 79.52 87.67 83.9 84.43 87.46C77 95.63 68.14 108.71 57.46 111.84C55.54 112.4 54.35 112.68 51.62 112.65C61.55 115.05 71.57 106.57 78.36 98.63C82.84 93.39 87.38 87.28 92.22 82.27C93.2 81.26 94.32 80.4 95.52 79.67L96.19 79.26Z" fill="#2D1B4E"/>
<path d="M116.89 74.69C118.8 78.34 119.18 82.7 119.07 84.76C118.96 86.88 118.31 88.61 118.09 87.66C117.39 84.62 115.73 80 113.17 79.26C111.78 78.86 110.04 79.17 108.54 79.71C107.8 79.97 107.07 79.25 107.28 78.46C107.59 77.31 107.97 76 107.95 75.56C107.79 70.66 103.64 70.08 100.33 69.29C98.48 68.85 100.58 68.47 101.16 68.42C105.16 68.06 108.18 68.7 110.46 69.67C114.07 71.2 114.92 70.65 116.92 68.65C118.62 66.96 119.32 64.74 118.7 60.81C118.49 59.45 123.07 57.94 123.06 59.46C123.05 61.99 122.4 65.97 119.72 69.31C118.24 71.16 115.88 72.78 116.88 74.69H116.89Z" fill="#2D1B4E"/>
<path d="M39.43 99.3301C37.68 99.5201 35.24 99.1201 31.23 96.9301C47.85 68.7001 17.44 56.7801 5.81 49.1801C-4.42 63.3901 -3.72 98.5 29.21 98.3101C32.22 100.13 34.95 101.42 38.31 102.24C39.22 102.46 40.15 101.88 40.33 100.95C40.37 100.77 40.4 100.58 40.42 100.4C40.51 99.7501 40.07 99.2601 39.42 99.3301H39.43ZM22.35 91.0501C20.78 89.4801 19.37 87.8701 18.09 86.2401C8.99 83.5101 5.16 79.2601 5.16 79.2601C9.53 81.6601 14.15 83.19 16.31 83.84C13.95 80.4701 12.12 77.0601 10.71 73.8201C5.52 71.4801 4.7 69.2401 4.7 69.2401C6.7 70.7001 8.86 71.7801 10.09 72.3501C6.17 62.6701 5.91 54.8701 5.91 54.8701C7.34 60.7901 9.25 66.1101 11.38 70.8201C11.68 69.1101 12.28 65.0701 12.11 60.8901C12.11 60.8901 13.62 65.2201 12.3 72.8001C13.99 76.3001 15.79 79.4201 17.59 82.1601C18.15 80.0601 19.53 74.2101 19.27 67.8001C19.27 67.8001 21.53 72.1301 19.14 84.4201C21.35 87.5301 23.5 90.0401 25.37 91.9001C26.24 92.7701 23.53 92.2201 22.37 91.0501H22.35Z" fill="#2D1B4E"/>
<path d="M74.31 23.51C73.26 23.76 72.46 22.44 73.32 21.72C74.27 20.92 75.69 22.25 74.73 23.28C74.64 23.38 74.44 23.48 74.31 23.51Z" fill="#2D1B4E"/>
<path d="M76.98 1.02995C87.72 5.77995 80.43 21.32 70.19 16.34C60.05 11.4 67.12 -3.32005 76.98 1.02995Z" fill="#2D1B4E"/>
<path d="M67.55 25.02C72.12 27.35 69.29 34.21 64.45 32.6C58.72 30.68 62.15 22.28 67.55 25.02Z" fill="#2D1B4E"/>
<path d="M83.66 26.88C89.61 29.95 84.42 38.8 78.63 34.59C74.17 31.35 78.48 24.21 83.66 26.88Z" fill="#2D1B4E"/>
<path d="M84.2 17.02C88.61 15.98 90.36 22.52 86.08 23.59C81.8 24.66 79.85 18.05 84.2 17.02Z" fill="#2D1B4E"/>
<path d="M65.48 17.01C67.9 18.14 66.82 22.05 64.12 21.58C60.33 20.91 62.12 15.44 65.48 17.01Z" fill="#2D1B4E"/>
<path d="M199.32 37.1C184.31 37.1 172.1 49.31 172.1 64.32C172.1 79.33 184.31 91.54 199.32 91.54C204.28 91.54 209.14 90.19 213.37 87.64C213.89 87.33 214.56 87.43 214.95 87.9C216.2 89.37 218.03 90.22 219.96 90.22H226.54V64.33C226.54 49.32 214.33 37.11 199.32 37.11V37.1ZM199.32 78.38C191.57 78.38 185.26 72.07 185.26 64.32C185.26 56.57 191.57 50.26 199.32 50.26C207.07 50.26 213.38 56.57 213.38 64.32C213.38 72.07 207.07 78.38 199.32 78.38Z" fill="#2D1B4E"/>
<path d="M381 37.1C365.99 37.1 353.78 49.31 353.78 64.32C353.78 79.33 365.99 91.54 381 91.54C385.96 91.54 390.82 90.19 395.05 87.64C395.57 87.32 396.24 87.43 396.63 87.9C397.88 89.37 399.71 90.22 401.64 90.22H408.22V64.33C408.22 49.32 396.01 37.11 381 37.11V37.1ZM381 78.38C373.25 78.38 366.94 72.07 366.94 64.32C366.94 56.57 373.25 50.26 381 50.26C388.75 50.26 395.06 56.57 395.06 64.32C395.06 72.07 388.75 78.38 381 78.38Z" fill="#2D1B4E"/>
<path d="M153.67 41.9101C153.33 41.8001 153.05 41.5501 152.91 41.2301C151.82 38.7701 149.39 37.1801 146.71 37.1801H139.93V90.4801H153.49V67.9701C153.49 58.9901 160.47 51.6101 169.29 50.9701V37.3901C164.12 37.6001 159.1 39.1101 154.68 41.7801C154.38 41.9601 154.01 42.0101 153.67 41.9001V41.9101Z" fill="#2D1B4E"/>
<path d="M275.64 40.59C275.25 41.05 274.58 41.16 274.06 40.85C269.78 38.26 264.86 36.9 259.83 36.9C244.63 36.9 232.26 49.27 232.26 64.47C232.26 79.67 244.63 92.04 259.83 92.04C264.19 92.04 268.37 91.04 272.25 89.08C272.63 88.89 273.09 88.9 273.46 89.13C273.83 89.36 274.05 89.75 274.05 90.18V91.76C274.05 99.6 267.67 105.98 259.83 105.98C252.41 105.98 246.29 100.26 245.66 93H232.28C232.93 107.63 245.04 119.33 259.82 119.33C274.6 119.33 287.39 106.96 287.39 91.76V38.24H280.72C278.76 38.24 276.91 39.1 275.64 40.59ZM259.83 78.68C251.99 78.68 245.61 72.3 245.61 64.46C245.61 56.62 251.99 50.24 259.83 50.24C267.67 50.24 274.05 56.62 274.05 64.46C274.05 72.3 267.67 78.68 259.83 78.68Z" fill="#2D1B4E"/>
<path d="M336.36 40.59C335.97 41.05 335.3 41.16 334.78 40.85C330.5 38.26 325.57 36.9 320.55 36.9C305.35 36.9 292.98 49.27 292.98 64.47C292.98 79.67 305.35 92.04 320.55 92.04C324.91 92.04 329.09 91.04 332.97 89.08C333.35 88.89 333.81 88.9 334.18 89.13C334.55 89.36 334.77 89.75 334.77 90.18V91.76C334.77 99.6 328.39 105.98 320.55 105.98C313.13 105.98 307.01 100.26 306.38 93H293C293.65 107.63 305.76 119.33 320.54 119.33C335.32 119.33 348.11 106.96 348.11 91.76V38.24H341.44C339.48 38.24 337.63 39.1 336.36 40.59ZM320.54 78.68C312.7 78.68 306.32 72.3 306.32 64.46C306.32 56.62 312.7 50.24 320.54 50.24C328.38 50.24 334.76 56.62 334.76 64.46C334.76 72.3 328.38 78.68 320.54 78.68Z" fill="#2D1B4E"/>
<path d="M412.28 38.9C412.68 39.58 412.88 40.43 412.88 41.44V41.5C412.88 42.51 412.68 43.36 412.28 44.04C411.88 44.72 411.32 45.23 410.62 45.56C409.91 45.89 409.09 46.06 408.15 46.06C407.21 46.06 406.39 45.89 405.68 45.56C404.97 45.23 404.42 44.72 404.02 44.04C403.62 43.36 403.42 42.52 403.42 41.5V41.44C403.42 40.43 403.62 39.58 404.02 38.9C404.42 38.22 404.98 37.71 405.68 37.38C406.39 37.05 407.21 36.89 408.15 36.89C409.09 36.89 409.91 37.05 410.62 37.38C411.33 37.71 411.88 38.22 412.28 38.9ZM410.86 38.76C410.24 38.17 409.34 37.87 408.15 37.87C406.96 37.87 406.07 38.17 405.44 38.76C404.82 39.35 404.5 40.24 404.5 41.43V41.52C404.5 42.71 404.81 43.6 405.44 44.19C406.06 44.78 406.97 45.08 408.15 45.08C409.33 45.08 410.24 44.78 410.86 44.19C411.48 43.6 411.79 42.71 411.79 41.52V41.43C411.79 40.24 411.48 39.35 410.86 38.76ZM410.38 43.72C410.38 43.72 410.37 43.77 410.34 43.77H409.37C409.37 43.77 409.33 43.77 409.33 43.74C409.33 43.66 409.33 43.59 409.31 43.51C409.29 43.43 409.29 43.36 409.29 43.31V42.74C409.29 42.45 409.21 42.27 409.06 42.18C408.91 42.09 408.66 42.05 408.3 42.05H407.14V43.72C407.14 43.72 407.14 43.76 407.11 43.76H406.14C406.14 43.76 406.1 43.75 406.1 43.72V39.22C406.1 39.22 406.11 39.18 406.14 39.18H408.59C409.17 39.18 409.6 39.27 409.86 39.45C410.13 39.63 410.26 39.92 410.26 40.34V40.48C410.26 40.81 410.18 41.07 410.02 41.26C409.86 41.45 409.66 41.57 409.41 41.6V41.64C409.68 41.67 409.9 41.77 410.07 41.92C410.24 42.07 410.32 42.3 410.32 42.6V43.13C410.32 43.38 410.34 43.58 410.37 43.71L410.38 43.72ZM409.03 40.14C408.9 40.08 408.67 40.05 408.34 40.05H407.14V41.24H408.41C408.7 41.24 408.91 41.2 409.04 41.11C409.17 41.03 409.24 40.87 409.24 40.64V40.58C409.24 40.35 409.17 40.21 409.04 40.14H409.03Z" fill="#2D1B4E"/>
<path d="M424.7 81.97C424.7 81.19 424.38 80.55 423.73 80.04C423.08 79.53 422.17 79.28 421 79.28C419.7 79.28 418.68 79.64 417.95 80.35C417.21 81.06 416.85 82.13 416.85 83.56V84.03C416.85 85.46 417.21 86.53 417.95 87.25C418.68 87.96 419.7 88.31 421 88.31C421.77 88.31 422.44 88.18 422.99 87.93C423.55 87.68 423.97 87.34 424.26 86.92C424.55 86.5 424.69 86.04 424.69 85.55V85.06H421.39C421.33 85.06 421.3 85.01 421.3 84.92V83.22C421.3 83.22 421.3 83.15 421.33 83.12C421.34 83.09 421.37 83.08 421.39 83.08H427.13C427.13 83.08 427.17 83.09 427.19 83.12C427.21 83.15 427.22 83.18 427.22 83.22V90.08C427.22 90.14 427.19 90.17 427.13 90.17H425.14C425.08 90.17 425.05 90.14 425.05 90.08L424.82 88.69H424.62C423.64 89.77 422.23 90.31 420.38 90.31C418.53 90.31 417.08 89.81 415.98 88.8C414.87 87.79 414.32 86.18 414.32 83.95V83.63C414.32 79.4 416.55 77.29 421 77.29C422.27 77.29 423.37 77.47 424.31 77.83C425.25 78.19 425.97 78.72 426.48 79.4C426.98 80.08 427.24 80.9 427.24 81.86V82.15C427.24 82.21 427.21 82.24 427.15 82.24H424.8C424.74 82.24 424.71 82.21 424.71 82.15V81.97H424.7Z" fill="#2D1B4E"/>
<path d="M439.94 90.1601C439.88 90.1601 439.84 90.1401 439.83 90.0901C439.75 89.9101 439.72 89.5101 439.72 88.8801V87.3101C439.72 86.5101 439.5 85.9601 439.06 85.6701C438.63 85.3801 437.93 85.2401 436.98 85.2401H433.05V90.0801C433.05 90.1401 433.02 90.1701 432.96 90.1701H430.61C430.55 90.1701 430.51 90.1401 430.51 90.0801V77.5301C430.51 77.4701 430.54 77.4401 430.61 77.4401H437.43C439.03 77.4401 440.2 77.6801 440.95 78.1801C441.69 78.6801 442.06 79.4901 442.06 80.6201V81.0201C442.06 81.9301 441.85 82.6701 441.41 83.2101C440.97 83.7501 440.4 84.0701 439.7 84.1601V84.2701C440.44 84.3601 441.06 84.6201 441.53 85.0601C442 85.5101 442.25 86.1301 442.25 86.9401V88.4201C442.25 89.1201 442.3 89.6601 442.39 90.0401C442.41 90.1301 442.39 90.1701 442.3 90.1701H439.93L439.94 90.1601ZM438.95 79.8501C438.56 79.5601 437.93 79.4201 437.07 79.4201H433.05V83.2501H437.26C438.03 83.2501 438.6 83.1101 438.98 82.8301C439.36 82.5501 439.55 82.0901 439.55 81.4401V81.2601C439.55 80.6001 439.35 80.1301 438.95 79.8401V79.8501Z" fill="#2D1B4E"/>
<path d="M444.95 85.7601V77.5301C444.95 77.4701 444.98 77.4401 445.04 77.4401H447.39C447.45 77.4401 447.48 77.4701 447.48 77.5301V85.2901C447.48 86.3901 447.75 87.1601 448.28 87.6201C448.81 88.0801 449.68 88.3001 450.87 88.3001C452.06 88.3001 452.95 88.0801 453.47 87.6201C453.99 87.1701 454.25 86.3901 454.25 85.2801V77.5201C454.25 77.4601 454.28 77.4301 454.34 77.4301H456.69C456.75 77.4301 456.78 77.4601 456.78 77.5201V85.7501C456.78 87.4101 456.29 88.5801 455.31 89.2701C454.33 89.9501 452.85 90.3001 450.87 90.3001C448.89 90.3001 447.43 89.96 446.44 89.2701C445.44 88.5801 444.95 87.4101 444.95 85.7501V85.7601Z" fill="#2D1B4E"/>
<path d="M471.81 81.7001V82.2101C471.81 83.7401 471.32 84.8101 470.34 85.4401C469.36 86.0701 467.88 86.3801 465.9 86.3801H462.6V90.0801C462.6 90.1401 462.57 90.1701 462.51 90.1701H460.16C460.1 90.1701 460.06 90.1401 460.06 90.0801V77.5301C460.06 77.4701 460.09 77.4401 460.16 77.4401H465.9C467.89 77.4401 469.37 77.7601 470.34 78.4101C471.31 79.0601 471.81 80.1601 471.81 81.7001ZM468.5 79.9501C467.98 79.6001 467.12 79.4201 465.9 79.4201H462.6V84.3901H465.9C466.73 84.3901 467.39 84.3201 467.87 84.1801C468.35 84.0401 468.71 83.8101 468.94 83.4701C469.17 83.1401 469.28 82.6801 469.28 82.0901V81.8001C469.28 80.9201 469.03 80.3001 468.5 79.9501Z" fill="#2D1B4E"/>
<path d="M474 83.95V83.63C474 81.47 474.59 79.88 475.77 78.84C476.95 77.8 478.53 77.29 480.5 77.29C482.47 77.29 484.1 77.8 485.26 78.83C486.42 79.86 487 81.46 487 83.62V83.94C487 86.12 486.42 87.72 485.26 88.75C484.1 89.78 482.51 90.29 480.5 90.29C478.49 90.29 476.95 89.77 475.77 88.74C474.59 87.71 474 86.11 474 83.94V83.95ZM484.47 83.84V83.73C484.47 82.29 484.12 81.18 483.41 80.42C482.69 79.65 481.73 79.27 480.5 79.27C479.27 79.27 478.33 79.65 477.61 80.42C476.89 81.18 476.53 82.29 476.53 83.73V83.84C476.53 85.28 476.89 86.39 477.61 87.16C478.33 87.93 479.3 88.31 480.5 88.31C481.7 88.31 482.69 87.93 483.41 87.16C484.12 86.4 484.47 85.29 484.47 83.84Z" fill="#2D1B4E"/>
</g>
<defs>
<clipPath id="clip0_1_314">
<rect width="487" height="125.79" fill="white"/>
</clipPath>
</defs>
</svg>
